ISO-10303-21;
HEADER;
/* Generated by software containing ST-Developer
 * from STEP Tools, Inc. (www.steptools.com) 
 */

FILE_DESCRIPTION(
/* description */ (''),
/* implementation_level */ '2;1');

FILE_NAME(
/* name */ 'MG996R_PODSTAWA.stp',
/* time_stamp */ '2025-12-08T10:38:22+01:00',
/* author */ ('juras'),
/* organization */ (''),
/* preprocessor_version */ 'ST-DEVELOPER v20',
/* originating_system */ 'Autodesk Inventor 2025',
/* authorisation */ '');

FILE_SCHEMA (('AUTOMOTIVE_DESIGN { 1 0 10303 214 3 1 1 }'));
ENDSEC;

DATA;
#10=MECHANICAL_DESIGN_GEOMETRIC_PRESENTATION_REPRESENTATION('',(#60,#61,
#62,#63,#64,#65,#66,#67),#1810);
#11=GEOMETRICALLY_BOUNDED_WIREFRAME_SHAPE_REPRESENTATION('',(#12,#13,#14,
#15,#16),#1809);
#12=GEOMETRIC_CURVE_SET('Szkic8',(#1802));
#13=GEOMETRIC_CURVE_SET('Szkic10',(#1803));
#14=GEOMETRIC_CURVE_SET('Szkic15',(#1804));
#15=GEOMETRIC_CURVE_SET('Szkic18',(#1805));
#16=GEOMETRIC_CURVE_SET('Szkic27',(#1806));
#17=SHAPE_REPRESENTATION_RELATIONSHIP('SRR','None',#1817,#19);
#18=SHAPE_REPRESENTATION_RELATIONSHIP('SRR','None',#1817,#11);
#19=ADVANCED_BREP_SHAPE_REPRESENTATION('',(#20),#1809);
#20=MANIFOLD_SOLID_BREP('Bry\X2\0142\X0\a1',#1003);
#21=FACE_BOUND('',#353,.T.);
#22=FACE_BOUND('',#354,.T.);
#23=FACE_BOUND('',#355,.T.);
#24=FACE_BOUND('',#356,.T.);
#25=FACE_BOUND('',#357,.T.);
#26=FACE_BOUND('',#362,.T.);
#27=FACE_BOUND('',#363,.T.);
#28=FACE_BOUND('',#364,.T.);
#29=FACE_BOUND('',#365,.T.);
#30=FACE_BOUND('',#367,.T.);
#31=FACE_BOUND('',#368,.T.);
#32=FACE_BOUND('',#369,.T.);
#33=FACE_BOUND('',#370,.T.);
#34=FACE_BOUND('',#371,.T.);
#35=FACE_BOUND('',#374,.T.);
#36=FACE_BOUND('',#375,.T.);
#37=FACE_BOUND('',#376,.T.);
#38=FACE_BOUND('',#377,.T.);
#39=B_SPLINE_SURFACE_WITH_KNOTS('',3,3,((#1528,#1529,#1530,#1531,#1532),
(#1533,#1534,#1535,#1536,#1537),(#1538,#1539,#1540,#1541,#1542),(#1543,
#1544,#1545,#1546,#1547),(#1548,#1549,#1550,#1551,#1552)),.UNSPECIFIED.,
 .F.,.F.,.F.,(4,1,4),(4,1,4),(0.,0.571428571428571,1.),(-1.5707963267949,
-0.897597901025656,-6.93889390390723E-16),.UNSPECIFIED.);
#40=B_SPLINE_SURFACE_WITH_KNOTS('',3,3,((#1569,#1570,#1571,#1572,#1573),
(#1574,#1575,#1576,#1577,#1578),(#1579,#1580,#1581,#1582,#1583),(#1584,
#1585,#1586,#1587,#1588),(#1589,#1590,#1591,#1592,#1593)),.UNSPECIFIED.,
 .F.,.F.,.F.,(4,1,4),(4,1,4),(0.,0.571428571428571,1.),(-6.28318530717958,
-5.38558740615393,-4.71238898038469),.UNSPECIFIED.);
#41=B_SPLINE_SURFACE_WITH_KNOTS('',3,3,((#1622,#1623,#1624,#1625,#1626),
(#1627,#1628,#1629,#1630,#1631),(#1632,#1633,#1634,#1635,#1636),(#1637,
#1638,#1639,#1640,#1641),(#1642,#1643,#1644,#1645,#1646)),.UNSPECIFIED.,
 .F.,.F.,.F.,(4,1,4),(4,1,4),(0.,0.571428571428571,1.),(-1.5707963267949,
-0.897597901025656,-6.93889390390723E-16),.UNSPECIFIED.);
#42=PLANE('',#1042);
#43=PLANE('',#1047);
#44=PLANE('',#1086);
#45=PLANE('',#1087);
#46=PLANE('',#1092);
#47=PLANE('',#1093);
#48=PLANE('',#1097);
#49=PLANE('',#1105);
#50=PLANE('',#1112);
#51=PLANE('',#1119);
#52=PLANE('',#1120);
#53=PLANE('',#1122);
#54=PLANE('',#1123);
#55=PLANE('',#1124);
#56=PLANE('',#1125);
#57=PLANE('',#1129);
#58=PLANE('',#1136);
#59=PLANE('',#1137);
#60=STYLED_ITEM('',(#1827),#953);
#61=STYLED_ITEM('',(#1827),#980);
#62=STYLED_ITEM('',(#1827),#994);
#63=STYLED_ITEM('',(#1827),#999);
#64=STYLED_ITEM('',(#1827),#1000);
#65=STYLED_ITEM('',(#1827),#1001);
#66=STYLED_ITEM('',(#1827),#1002);
#67=STYLED_ITEM('',(#1826),#20);
#68=B_SPLINE_CURVE_WITH_KNOTS('',3,(#1475,#1476,#1477,#1478,#1479,#1480,
#1481,#1482,#1483,#1484),.UNSPECIFIED.,.F.,.F.,(4,2,2,2,4),(0.,0.117562819132908,
0.235125638265817,0.311588864828487,0.388052091391156),.UNSPECIFIED.);
#69=TOROIDAL_SURFACE('',#1039,4.,2.);
#70=ELLIPSE('',#1036,2.82842712474619,2.);
#71=ELLIPSE('',#1044,2.82842712474619,2.);
#72=ELLIPSE('',#1046,2.33238075793812,2.);
#73=ELLIPSE('',#1052,2.82842712474618,2.);
#74=ELLIPSE('',#1054,2.8284271247462,2.);
#75=ELLIPSE('',#1055,2.33238075793812,2.00000000000001);
#76=ELLIPSE('',#1057,4.17612260356422,4.);
#77=ELLIPSE('',#1064,4.17612260356422,4.);
#78=ELLIPSE('',#1066,2.33238075793812,2.);
#79=ELLIPSE('',#1076,2.82842712474619,2.);
#80=ELLIPSE('',#1078,4.17612260356422,4.);
#81=LINE('',#1454,#159);
#82=LINE('',#1455,#160);
#83=LINE('',#1464,#161);
#84=LINE('',#1465,#162);
#85=LINE('',#1470,#163);
#86=LINE('',#1471,#164);
#87=LINE('',#1489,#165);
#88=LINE('',#1491,#166);
#89=LINE('',#1493,#167);
#90=LINE('',#1495,#168);
#91=LINE('',#1497,#169);
#92=LINE('',#1498,#170);
#93=LINE('',#1501,#171);
#94=LINE('',#1505,#172);
#95=LINE('',#1508,#173);
#96=LINE('',#1510,#174);
#97=LINE('',#1513,#175);
#98=LINE('',#1518,#176);
#99=LINE('',#1522,#177);
#100=LINE('',#1526,#178);
#101=LINE('',#1568,#179);
#102=LINE('',#1603,#180);
#103=LINE('',#1604,#181);
#104=LINE('',#1612,#182);
#105=LINE('',#1613,#183);
#106=LINE('',#1615,#184);
#107=LINE('',#1618,#185);
#108=LINE('',#1621,#186);
#109=LINE('',#1654,#187);
#110=LINE('',#1655,#188);
#111=LINE('',#1660,#189);
#112=LINE('',#1661,#190);
#113=LINE('',#1663,#191);
#114=LINE('',#1664,#192);
#115=LINE('',#1666,#193);
#116=LINE('',#1667,#194);
#117=LINE('',#1669,#195);
#118=LINE('',#1671,#196);
#119=LINE('',#1674,#197);
#120=LINE('',#1676,#198);
#121=LINE('',#1678,#199);
#122=LINE('',#1679,#200);
#123=LINE('',#1689,#201);
#124=LINE('',#1696,#202);
#125=LINE('',#1699,#203);
#126=LINE('',#1702,#204);
#127=LINE('',#1706,#205);
#128=LINE('',#1710,#206);
#129=LINE('',#1713,#207);
#130=LINE('',#1723,#208);
#131=LINE('',#1725,#209);
#132=LINE('',#1726,#210);
#133=LINE('',#1727,#211);
#134=LINE('',#1728,#212);
#135=LINE('',#1733,#213);
#136=LINE('',#1735,#214);
#137=LINE('',#1737,#215);
#138=LINE('',#1738,#216);
#139=LINE('',#1748,#217);
#140=LINE('',#1751,#218);
#141=LINE('',#1755,#219);
#142=LINE('',#1758,#220);
#143=LINE('',#1770,#221);
#144=LINE('',#1772,#222);
#145=LINE('',#1773,#223);
#146=LINE('',#1775,#224);
#147=LINE('',#1777,#225);
#148=LINE('',#1780,#226);
#149=LINE('',#1782,#227);
#150=LINE('',#1784,#228);
#151=LINE('',#1786,#229);
#152=LINE('',#1788,#230);
#153=LINE('',#1790,#231);
#154=LINE('',#1792,#232);
#155=LINE('',#1794,#233);
#156=LINE('',#1796,#234);
#157=LINE('',#1798,#235);
#158=LINE('',#1799,#236);
#159=VECTOR('',#1152,10.);
#160=VECTOR('',#1153,10.);
#161=VECTOR('',#1164,10.);
#162=VECTOR('',#1165,10.);
#163=VECTOR('',#1170,10.);
#164=VECTOR('',#1171,10.);
#165=VECTOR('',#1180,10.);
#166=VECTOR('',#1181,10.);
#167=VECTOR('',#1182,10.);
#168=VECTOR('',#1183,10.);
#169=VECTOR('',#1184,10.);
#170=VECTOR('',#1185,10.);
#171=VECTOR('',#1188,10.);
#172=VECTOR('',#1193,10.);
#173=VECTOR('',#1196,10.);
#174=VECTOR('',#1199,10.);
#175=VECTOR('',#1202,10.);
#176=VECTOR('',#1207,10.);
#177=VECTOR('',#1210,10.);
#178=VECTOR('',#1215,10.);
#179=VECTOR('',#1236,10.);
#180=VECTOR('',#1247,10.);
#181=VECTOR('',#1248,10.);
#182=VECTOR('',#1259,10.);
#183=VECTOR('',#1260,10.);
#184=VECTOR('',#1263,10.);
#185=VECTOR('',#1266,10.);
#186=VECTOR('',#1271,10.);
#187=VECTOR('',#1280,10.);
#188=VECTOR('',#1281,10.);
#189=VECTOR('',#1286,10.);
#190=VECTOR('',#1287,10.);
#191=VECTOR('',#1290,10.);
#192=VECTOR('',#1291,10.);
#193=VECTOR('',#1294,10.);
#194=VECTOR('',#1295,10.);
#195=VECTOR('',#1298,10.);
#196=VECTOR('',#1301,10.);
#197=VECTOR('',#1302,10.);
#198=VECTOR('',#1303,10.);
#199=VECTOR('',#1304,10.);
#200=VECTOR('',#1305,10.);
#201=VECTOR('',#1316,10.);
#202=VECTOR('',#1323,10.);
#203=VECTOR('',#1326,10.);
#204=VECTOR('',#1329,10.);
#205=VECTOR('',#1332,10.);
#206=VECTOR('',#1335,10.);
#207=VECTOR('',#1338,10.);
#208=VECTOR('',#1349,10.);
#209=VECTOR('',#1350,10.);
#210=VECTOR('',#1351,10.);
#211=VECTOR('',#1352,10.);
#212=VECTOR('',#1353,10.);
#213=VECTOR('',#1356,10.);
#214=VECTOR('',#1357,10.);
#215=VECTOR('',#1358,10.);
#216=VECTOR('',#1359,10.);
#217=VECTOR('',#1370,10.);
#218=VECTOR('',#1373,10.);
#219=VECTOR('',#1376,10.);
#220=VECTOR('',#1379,10.);
#221=VECTOR('',#1394,1.5);
#222=VECTOR('',#1397,10.);
#223=VECTOR('',#1398,10.);
#224=VECTOR('',#1401,10.);
#225=VECTOR('',#1404,10.);
#226=VECTOR('',#1409,1.5);
#227=VECTOR('',#1412,1.5);
#228=VECTOR('',#1415,1.5);
#229=VECTOR('',#1418,10.);
#230=VECTOR('',#1421,2.5);
#231=VECTOR('',#1424,2.5);
#232=VECTOR('',#1427,2.5);
#233=VECTOR('',#1430,2.5);
#234=VECTOR('',#1433,10.);
#235=VECTOR('',#1436,10.);
#236=VECTOR('',#1437,10.);
#237=CYLINDRICAL_SURFACE('',#1030,2.);
#238=CYLINDRICAL_SURFACE('',#1035,2.);
#239=CYLINDRICAL_SURFACE('',#1037,2.);
#240=CYLINDRICAL_SURFACE('',#1043,2.);
#241=CYLINDRICAL_SURFACE('',#1045,2.);
#242=CYLINDRICAL_SURFACE('',#1048,2.);
#243=CYLINDRICAL_SURFACE('',#1050,2.);
#244=CYLINDRICAL_SURFACE('',#1053,2.);
#245=CYLINDRICAL_SURFACE('',#1063,2.);
#246=CYLINDRICAL_SURFACE('',#1068,2.);
#247=CYLINDRICAL_SURFACE('',#1073,2.);
#248=CYLINDRICAL_SURFACE('',#1074,2.);
#249=CYLINDRICAL_SURFACE('',#1075,2.);
#250=CYLINDRICAL_SURFACE('',#1077,2.);
#251=CYLINDRICAL_SURFACE('',#1080,2.);
#252=CYLINDRICAL_SURFACE('',#1082,2.);
#253=CYLINDRICAL_SURFACE('',#1084,2.);
#254=CYLINDRICAL_SURFACE('',#1085,2.);
#255=CYLINDRICAL_SURFACE('',#1094,2.);
#256=CYLINDRICAL_SURFACE('',#1110,2.);
#257=CYLINDRICAL_SURFACE('',#1121,1.5);
#258=CYLINDRICAL_SURFACE('',#1126,1.5);
#259=CYLINDRICAL_SURFACE('',#1127,1.5);
#260=CYLINDRICAL_SURFACE('',#1128,1.5);
#261=CYLINDRICAL_SURFACE('',#1130,2.5);
#262=CYLINDRICAL_SURFACE('',#1131,2.5);
#263=CYLINDRICAL_SURFACE('',#1132,2.5);
#264=CYLINDRICAL_SURFACE('',#1133,2.5);
#265=CYLINDRICAL_SURFACE('',#1134,2.);
#266=CYLINDRICAL_SURFACE('',#1135,2.);
#267=FACE_OUTER_BOUND('',#323,.T.);
#268=FACE_OUTER_BOUND('',#324,.T.);
#269=FACE_OUTER_BOUND('',#325,.T.);
#270=FACE_OUTER_BOUND('',#326,.T.);
#271=FACE_OUTER_BOUND('',#327,.T.);
#272=FACE_OUTER_BOUND('',#328,.T.);
#273=FACE_OUTER_BOUND('',#329,.T.);
#274=FACE_OUTER_BOUND('',#330,.T.);
#275=FACE_OUTER_BOUND('',#331,.T.);
#276=FACE_OUTER_BOUND('',#332,.T.);
#277=FACE_OUTER_BOUND('',#333,.T.);
#278=FACE_OUTER_BOUND('',#334,.T.);
#279=FACE_OUTER_BOUND('',#335,.T.);
#280=FACE_OUTER_BOUND('',#336,.T.);
#281=FACE_OUTER_BOUND('',#337,.T.);
#282=FACE_OUTER_BOUND('',#338,.T.);
#283=FACE_OUTER_BOUND('',#339,.T.);
#284=FACE_OUTER_BOUND('',#340,.T.);
#285=FACE_OUTER_BOUND('',#341,.T.);
#286=FACE_OUTER_BOUND('',#342,.T.);
#287=FACE_OUTER_BOUND('',#343,.T.);
#288=FACE_OUTER_BOUND('',#344,.T.);
#289=FACE_OUTER_BOUND('',#345,.T.);
#290=FACE_OUTER_BOUND('',#346,.T.);
#291=FACE_OUTER_BOUND('',#347,.T.);
#292=FACE_OUTER_BOUND('',#348,.T.);
#293=FACE_OUTER_BOUND('',#349,.T.);
#294=FACE_OUTER_BOUND('',#350,.T.);
#295=FACE_OUTER_BOUND('',#351,.T.);
#296=FACE_OUTER_BOUND('',#352,.T.);
#297=FACE_OUTER_BOUND('',#358,.T.);
#298=FACE_OUTER_BOUND('',#359,.T.);
#299=FACE_OUTER_BOUND('',#360,.T.);
#300=FACE_OUTER_BOUND('',#361,.T.);
#301=FACE_OUTER_BOUND('',#366,.T.);
#302=FACE_OUTER_BOUND('',#372,.T.);
#303=FACE_OUTER_BOUND('',#373,.T.);
#304=FACE_OUTER_BOUND('',#378,.T.);
#305=FACE_OUTER_BOUND('',#379,.T.);
#306=FACE_OUTER_BOUND('',#380,.T.);
#307=FACE_OUTER_BOUND('',#381,.T.);
#308=FACE_OUTER_BOUND('',#382,.T.);
#309=FACE_OUTER_BOUND('',#383,.T.);
#310=FACE_OUTER_BOUND('',#384,.T.);
#311=FACE_OUTER_BOUND('',#385,.T.);
#312=FACE_OUTER_BOUND('',#386,.T.);
#313=FACE_OUTER_BOUND('',#387,.T.);
#314=FACE_OUTER_BOUND('',#388,.T.);
#315=FACE_OUTER_BOUND('',#389,.T.);
#316=FACE_OUTER_BOUND('',#390,.T.);
#317=FACE_OUTER_BOUND('',#391,.T.);
#318=FACE_OUTER_BOUND('',#392,.T.);
#319=FACE_OUTER_BOUND('',#393,.T.);
#320=FACE_OUTER_BOUND('',#394,.T.);
#321=FACE_OUTER_BOUND('',#395,.T.);
#322=FACE_OUTER_BOUND('',#396,.T.);
#323=EDGE_LOOP('',(#667,#668,#669));
#324=EDGE_LOOP('',(#670,#671,#672,#673));
#325=EDGE_LOOP('',(#674,#675,#676));
#326=EDGE_LOOP('',(#677,#678,#679,#680));
#327=EDGE_LOOP('',(#681,#682,#683,#684));
#328=EDGE_LOOP('',(#685,#686,#687,#688));
#329=EDGE_LOOP('',(#689,#690,#691,#692,#693,#694,#695,#696));
#330=EDGE_LOOP('',(#697,#698,#699,#700));
#331=EDGE_LOOP('',(#701,#702,#703,#704));
#332=EDGE_LOOP('',(#705,#706,#707,#708));
#333=EDGE_LOOP('',(#709,#710,#711,#712));
#334=EDGE_LOOP('',(#713,#714,#715,#716));
#335=EDGE_LOOP('',(#717,#718,#719,#720));
#336=EDGE_LOOP('',(#721,#722,#723,#724));
#337=EDGE_LOOP('',(#725,#726,#727));
#338=EDGE_LOOP('',(#728,#729,#730,#731));
#339=EDGE_LOOP('',(#732,#733,#734,#735));
#340=EDGE_LOOP('',(#736,#737,#738,#739));
#341=EDGE_LOOP('',(#740,#741,#742));
#342=EDGE_LOOP('',(#743,#744,#745,#746));
#343=EDGE_LOOP('',(#747,#748,#749,#750));
#344=EDGE_LOOP('',(#751,#752,#753,#754));
#345=EDGE_LOOP('',(#755,#756,#757,#758));
#346=EDGE_LOOP('',(#759,#760,#761,#762));
#347=EDGE_LOOP('',(#763,#764,#765,#766));
#348=EDGE_LOOP('',(#767,#768,#769,#770));
#349=EDGE_LOOP('',(#771,#772,#773,#774));
#350=EDGE_LOOP('',(#775,#776,#777,#778));
#351=EDGE_LOOP('',(#779,#780,#781,#782));
#352=EDGE_LOOP('',(#783,#784,#785,#786));
#353=EDGE_LOOP('',(#787,#788,#789,#790));
#354=EDGE_LOOP('',(#791));
#355=EDGE_LOOP('',(#792));
#356=EDGE_LOOP('',(#793));
#357=EDGE_LOOP('',(#794));
#358=EDGE_LOOP('',(#795,#796,#797,#798,#799,#800));
#359=EDGE_LOOP('',(#801,#802,#803,#804));
#360=EDGE_LOOP('',(#805,#806,#807,#808));
#361=EDGE_LOOP('',(#809,#810,#811,#812,#813,#814,#815,#816));
#362=EDGE_LOOP('',(#817));
#363=EDGE_LOOP('',(#818));
#364=EDGE_LOOP('',(#819));
#365=EDGE_LOOP('',(#820));
#366=EDGE_LOOP('',(#821,#822,#823,#824,#825,#826,#827,#828,#829,#830));
#367=EDGE_LOOP('',(#831));
#368=EDGE_LOOP('',(#832,#833,#834,#835));
#369=EDGE_LOOP('',(#836));
#370=EDGE_LOOP('',(#837));
#371=EDGE_LOOP('',(#838));
#372=EDGE_LOOP('',(#839,#840,#841,#842));
#373=EDGE_LOOP('',(#843,#844,#845,#846,#847,#848,#849,#850,#851,#852,#853,
#854,#855,#856,#857,#858,#859,#860,#861,#862));
#374=EDGE_LOOP('',(#863));
#375=EDGE_LOOP('',(#864));
#376=EDGE_LOOP('',(#865));
#377=EDGE_LOOP('',(#866));
#378=EDGE_LOOP('',(#867,#868,#869,#870));
#379=EDGE_LOOP('',(#871,#872,#873,#874));
#380=EDGE_LOOP('',(#875,#876,#877,#878));
#381=EDGE_LOOP('',(#879,#880,#881,#882));
#382=EDGE_LOOP('',(#883,#884,#885,#886));
#383=EDGE_LOOP('',(#887,#888,#889,#890));
#384=EDGE_LOOP('',(#891,#892,#893,#894));
#385=EDGE_LOOP('',(#895,#896,#897,#898));
#386=EDGE_LOOP('',(#899,#900,#901,#902));
#387=EDGE_LOOP('',(#903,#904,#905,#906));
#388=EDGE_LOOP('',(#907,#908,#909,#910));
#389=EDGE_LOOP('',(#911,#912,#913,#914));
#390=EDGE_LOOP('',(#915,#916,#917,#918));
#391=EDGE_LOOP('',(#919,#920,#921,#922));
#392=EDGE_LOOP('',(#923,#924,#925,#926));
#393=EDGE_LOOP('',(#927,#928,#929,#930));
#394=EDGE_LOOP('',(#931,#932,#933,#934));
#395=EDGE_LOOP('',(#935,#936,#937,#938));
#396=EDGE_LOOP('',(#939,#940,#941,#942));
#397=CIRCLE('',#1027,2.);
#398=CIRCLE('',#1028,2.);
#399=CIRCLE('',#1029,2.);
#400=CIRCLE('',#1031,2.);
#401=CIRCLE('',#1033,2.);
#402=CIRCLE('',#1034,2.);
#403=CIRCLE('',#1038,2.);
#404=CIRCLE('',#1040,2.);
#405=CIRCLE('',#1041,4.);
#406=CIRCLE('',#1049,2.00000000000001);
#407=CIRCLE('',#1051,2.);
#408=CIRCLE('',#1056,2.00000000000001);
#409=CIRCLE('',#1058,2.);
#410=CIRCLE('',#1060,2.);
#411=CIRCLE('',#1061,2.);
#412=CIRCLE('',#1062,2.);
#413=CIRCLE('',#1065,2.);
#414=CIRCLE('',#1067,2.);
#415=CIRCLE('',#1070,2.);
#416=CIRCLE('',#1071,2.);
#417=CIRCLE('',#1072,2.);
#418=CIRCLE('',#1079,2.);
#419=CIRCLE('',#1081,2.);
#420=CIRCLE('',#1083,2.);
#421=CIRCLE('',#1088,1.5);
#422=CIRCLE('',#1089,1.5);
#423=CIRCLE('',#1090,1.5);
#424=CIRCLE('',#1091,1.5);
#425=CIRCLE('',#1095,2.);
#426=CIRCLE('',#1096,2.);
#427=CIRCLE('',#1098,2.);
#428=CIRCLE('',#1099,2.);
#429=CIRCLE('',#1100,2.);
#430=CIRCLE('',#1101,2.5);
#431=CIRCLE('',#1102,2.5);
#432=CIRCLE('',#1103,2.5);
#433=CIRCLE('',#1104,2.5);
#434=CIRCLE('',#1106,1.5);
#435=CIRCLE('',#1107,1.5);
#436=CIRCLE('',#1108,1.5);
#437=CIRCLE('',#1109,1.5);
#438=CIRCLE('',#1111,2.);
#439=CIRCLE('',#1113,2.);
#440=CIRCLE('',#1114,2.);
#441=CIRCLE('',#1115,2.5);
#442=CIRCLE('',#1116,2.5);
#443=CIRCLE('',#1117,2.5);
#444=CIRCLE('',#1118,2.5);
#445=VERTEX_POINT('',#1444);
#446=VERTEX_POINT('',#1445);
#447=VERTEX_POINT('',#1447);
#448=VERTEX_POINT('',#1451);
#449=VERTEX_POINT('',#1452);
#450=VERTEX_POINT('',#1457);
#451=VERTEX_POINT('',#1461);
#452=VERTEX_POINT('',#1462);
#453=VERTEX_POINT('',#1467);
#454=VERTEX_POINT('',#1468);
#455=VERTEX_POINT('',#1473);
#456=VERTEX_POINT('',#1474);
#457=VERTEX_POINT('',#1488);
#458=VERTEX_POINT('',#1490);
#459=VERTEX_POINT('',#1492);
#460=VERTEX_POINT('',#1494);
#461=VERTEX_POINT('',#1496);
#462=VERTEX_POINT('',#1500);
#463=VERTEX_POINT('',#1504);
#464=VERTEX_POINT('',#1506);
#465=VERTEX_POINT('',#1512);
#466=VERTEX_POINT('',#1516);
#467=VERTEX_POINT('',#1517);
#468=VERTEX_POINT('',#1519);
#469=VERTEX_POINT('',#1521);
#470=VERTEX_POINT('',#1525);
#471=VERTEX_POINT('',#1553);
#472=VERTEX_POINT('',#1554);
#473=VERTEX_POINT('',#1556);
#474=VERTEX_POINT('',#1558);
#475=VERTEX_POINT('',#1562);
#476=VERTEX_POINT('',#1563);
#477=VERTEX_POINT('',#1594);
#478=VERTEX_POINT('',#1595);
#479=VERTEX_POINT('',#1597);
#480=VERTEX_POINT('',#1599);
#481=VERTEX_POINT('',#1606);
#482=VERTEX_POINT('',#1608);
#483=VERTEX_POINT('',#1617);
#484=VERTEX_POINT('',#1647);
#485=VERTEX_POINT('',#1651);
#486=VERTEX_POINT('',#1652);
#487=VERTEX_POINT('',#1657);
#488=VERTEX_POINT('',#1658);
#489=VERTEX_POINT('',#1672);
#490=VERTEX_POINT('',#1673);
#491=VERTEX_POINT('',#1675);
#492=VERTEX_POINT('',#1677);
#493=VERTEX_POINT('',#1680);
#494=VERTEX_POINT('',#1682);
#495=VERTEX_POINT('',#1684);
#496=VERTEX_POINT('',#1686);
#497=VERTEX_POINT('',#1692);
#498=VERTEX_POINT('',#1693);
#499=VERTEX_POINT('',#1695);
#500=VERTEX_POINT('',#1697);
#501=VERTEX_POINT('',#1701);
#502=VERTEX_POINT('',#1703);
#503=VERTEX_POINT('',#1705);
#504=VERTEX_POINT('',#1707);
#505=VERTEX_POINT('',#1709);
#506=VERTEX_POINT('',#1711);
#507=VERTEX_POINT('',#1714);
#508=VERTEX_POINT('',#1716);
#509=VERTEX_POINT('',#1718);
#510=VERTEX_POINT('',#1720);
#511=VERTEX_POINT('',#1724);
#512=VERTEX_POINT('',#1729);
#513=VERTEX_POINT('',#1731);
#514=VERTEX_POINT('',#1732);
#515=VERTEX_POINT('',#1734);
#516=VERTEX_POINT('',#1736);
#517=VERTEX_POINT('',#1739);
#518=VERTEX_POINT('',#1741);
#519=VERTEX_POINT('',#1743);
#520=VERTEX_POINT('',#1746);
#521=VERTEX_POINT('',#1750);
#522=VERTEX_POINT('',#1752);
#523=VERTEX_POINT('',#1754);
#524=VERTEX_POINT('',#1756);
#525=VERTEX_POINT('',#1759);
#526=VERTEX_POINT('',#1761);
#527=VERTEX_POINT('',#1763);
#528=VERTEX_POINT('',#1765);
#529=EDGE_CURVE('',#445,#446,#397,.F.);
#530=EDGE_CURVE('',#447,#445,#398,.F.);
#531=EDGE_CURVE('',#446,#447,#399,.F.);
#532=EDGE_CURVE('',#448,#449,#400,.T.);
#533=EDGE_CURVE('',#449,#447,#81,.T.);
#534=EDGE_CURVE('',#445,#448,#82,.T.);
#535=EDGE_CURVE('',#448,#450,#401,.T.);
#536=EDGE_CURVE('',#450,#449,#402,.T.);
#537=EDGE_CURVE('',#451,#452,#70,.F.);
#538=EDGE_CURVE('',#452,#446,#83,.T.);
#539=EDGE_CURVE('',#447,#451,#84,.T.);
#540=EDGE_CURVE('',#453,#454,#403,.T.);
#541=EDGE_CURVE('',#454,#445,#85,.T.);
#542=EDGE_CURVE('',#446,#453,#86,.T.);
#543=EDGE_CURVE('',#455,#456,#68,.F.);
#544=EDGE_CURVE('',#456,#454,#404,.T.);
#545=EDGE_CURVE('',#453,#455,#405,.T.);
#546=EDGE_CURVE('',#451,#457,#87,.T.);
#547=EDGE_CURVE('',#458,#449,#88,.T.);
#548=EDGE_CURVE('',#459,#458,#89,.T.);
#549=EDGE_CURVE('',#460,#459,#90,.T.);
#550=EDGE_CURVE('',#461,#460,#91,.T.);
#551=EDGE_CURVE('',#457,#461,#92,.T.);
#552=EDGE_CURVE('',#450,#462,#93,.T.);
#553=EDGE_CURVE('',#458,#462,#71,.T.);
#554=EDGE_CURVE('',#448,#463,#94,.T.);
#555=EDGE_CURVE('',#463,#464,#72,.F.);
#556=EDGE_CURVE('',#464,#450,#95,.T.);
#557=EDGE_CURVE('',#463,#454,#96,.T.);
#558=EDGE_CURVE('',#456,#465,#97,.T.);
#559=EDGE_CURVE('',#465,#463,#406,.T.);
#560=EDGE_CURVE('',#466,#467,#98,.T.);
#561=EDGE_CURVE('',#468,#467,#407,.T.);
#562=EDGE_CURVE('',#468,#469,#99,.T.);
#563=EDGE_CURVE('',#469,#466,#73,.T.);
#564=EDGE_CURVE('',#470,#452,#100,.T.);
#565=EDGE_CURVE('',#457,#470,#74,.T.);
#566=EDGE_CURVE('',#471,#472,#75,.F.);
#567=EDGE_CURVE('',#473,#471,#408,.T.);
#568=EDGE_CURVE('',#473,#474,#76,.T.);
#569=EDGE_CURVE('',#472,#474,#409,.T.);
#570=EDGE_CURVE('',#475,#476,#410,.F.);
#571=EDGE_CURVE('',#461,#475,#411,.F.);
#572=EDGE_CURVE('',#476,#461,#412,.F.);
#573=EDGE_CURVE('',#475,#470,#101,.T.);
#574=EDGE_CURVE('',#477,#478,#77,.T.);
#575=EDGE_CURVE('',#479,#478,#413,.T.);
#576=EDGE_CURVE('',#480,#479,#78,.F.);
#577=EDGE_CURVE('',#477,#480,#414,.T.);
#578=EDGE_CURVE('',#478,#473,#102,.T.);
#579=EDGE_CURVE('',#471,#479,#103,.T.);
#580=EDGE_CURVE('',#481,#460,#415,.F.);
#581=EDGE_CURVE('',#482,#481,#416,.F.);
#582=EDGE_CURVE('',#460,#482,#417,.F.);
#583=EDGE_CURVE('',#481,#480,#104,.T.);
#584=EDGE_CURVE('',#479,#482,#105,.T.);
#585=EDGE_CURVE('',#482,#476,#106,.T.);
#586=EDGE_CURVE('',#483,#481,#107,.T.);
#587=EDGE_CURVE('',#459,#483,#79,.T.);
#588=EDGE_CURVE('',#462,#483,#108,.T.);
#589=EDGE_CURVE('',#465,#484,#80,.T.);
#590=EDGE_CURVE('',#464,#484,#418,.T.);
#591=EDGE_CURVE('',#485,#486,#419,.T.);
#592=EDGE_CURVE('',#486,#464,#109,.T.);
#593=EDGE_CURVE('',#484,#485,#110,.T.);
#594=EDGE_CURVE('',#487,#488,#420,.T.);
#595=EDGE_CURVE('',#488,#477,#111,.T.);
#596=EDGE_CURVE('',#480,#487,#112,.T.);
#597=EDGE_CURVE('',#472,#475,#113,.T.);
#598=EDGE_CURVE('',#476,#471,#114,.T.);
#599=EDGE_CURVE('',#469,#472,#115,.T.);
#600=EDGE_CURVE('',#474,#466,#116,.T.);
#601=EDGE_CURVE('',#469,#470,#117,.T.);
#602=EDGE_CURVE('',#468,#452,#118,.T.);
#603=EDGE_CURVE('',#489,#490,#119,.T.);
#604=EDGE_CURVE('',#490,#491,#120,.T.);
#605=EDGE_CURVE('',#491,#492,#121,.T.);
#606=EDGE_CURVE('',#492,#489,#122,.T.);
#607=EDGE_CURVE('',#493,#493,#421,.T.);
#608=EDGE_CURVE('',#494,#494,#422,.T.);
#609=EDGE_CURVE('',#495,#495,#423,.T.);
#610=EDGE_CURVE('',#496,#496,#424,.T.);
#611=EDGE_CURVE('',#455,#467,#123,.T.);
#612=EDGE_CURVE('',#497,#498,#425,.T.);
#613=EDGE_CURVE('',#498,#499,#124,.T.);
#614=EDGE_CURVE('',#499,#500,#426,.T.);
#615=EDGE_CURVE('',#500,#497,#125,.T.);
#616=EDGE_CURVE('',#499,#501,#126,.T.);
#617=EDGE_CURVE('',#502,#501,#427,.T.);
#618=EDGE_CURVE('',#502,#503,#127,.T.);
#619=EDGE_CURVE('',#504,#503,#428,.T.);
#620=EDGE_CURVE('',#504,#505,#128,.T.);
#621=EDGE_CURVE('',#506,#505,#429,.T.);
#622=EDGE_CURVE('',#506,#500,#129,.T.);
#623=EDGE_CURVE('',#507,#507,#430,.T.);
#624=EDGE_CURVE('',#508,#508,#431,.T.);
#625=EDGE_CURVE('',#509,#509,#432,.T.);
#626=EDGE_CURVE('',#510,#510,#433,.T.);
#627=EDGE_CURVE('',#486,#462,#130,.T.);
#628=EDGE_CURVE('',#511,#485,#131,.T.);
#629=EDGE_CURVE('',#501,#511,#132,.T.);
#630=EDGE_CURVE('',#488,#498,#133,.T.);
#631=EDGE_CURVE('',#487,#483,#134,.T.);
#632=EDGE_CURVE('',#512,#512,#434,.T.);
#633=EDGE_CURVE('',#513,#514,#135,.T.);
#634=EDGE_CURVE('',#514,#515,#136,.T.);
#635=EDGE_CURVE('',#515,#516,#137,.T.);
#636=EDGE_CURVE('',#516,#513,#138,.T.);
#637=EDGE_CURVE('',#517,#517,#435,.T.);
#638=EDGE_CURVE('',#518,#518,#436,.T.);
#639=EDGE_CURVE('',#519,#519,#437,.T.);
#640=EDGE_CURVE('',#511,#520,#438,.T.);
#641=EDGE_CURVE('',#520,#502,#139,.T.);
#642=EDGE_CURVE('',#497,#521,#140,.T.);
#643=EDGE_CURVE('',#522,#521,#439,.T.);
#644=EDGE_CURVE('',#522,#523,#141,.T.);
#645=EDGE_CURVE('',#524,#523,#440,.T.);
#646=EDGE_CURVE('',#524,#520,#142,.T.);
#647=EDGE_CURVE('',#525,#525,#441,.T.);
#648=EDGE_CURVE('',#526,#526,#442,.T.);
#649=EDGE_CURVE('',#527,#527,#443,.T.);
#650=EDGE_CURVE('',#528,#528,#444,.T.);
#651=EDGE_CURVE('',#512,#495,#143,.T.);
#652=EDGE_CURVE('',#491,#515,#144,.T.);
#653=EDGE_CURVE('',#516,#490,#145,.T.);
#654=EDGE_CURVE('',#489,#513,#146,.T.);
#655=EDGE_CURVE('',#492,#514,#147,.T.);
#656=EDGE_CURVE('',#517,#493,#148,.T.);
#657=EDGE_CURVE('',#518,#494,#149,.T.);
#658=EDGE_CURVE('',#519,#496,#150,.T.);
#659=EDGE_CURVE('',#503,#524,#151,.T.);
#660=EDGE_CURVE('',#528,#510,#152,.T.);
#661=EDGE_CURVE('',#527,#509,#153,.T.);
#662=EDGE_CURVE('',#526,#508,#154,.T.);
#663=EDGE_CURVE('',#525,#507,#155,.T.);
#664=EDGE_CURVE('',#523,#504,#156,.T.);
#665=EDGE_CURVE('',#521,#506,#157,.T.);
#666=EDGE_CURVE('',#505,#522,#158,.T.);
#667=ORIENTED_EDGE('',*,*,#529,.F.);
#668=ORIENTED_EDGE('',*,*,#530,.F.);
#669=ORIENTED_EDGE('',*,*,#531,.F.);
#670=ORIENTED_EDGE('',*,*,#532,.T.);
#671=ORIENTED_EDGE('',*,*,#533,.T.);
#672=ORIENTED_EDGE('',*,*,#530,.T.);
#673=ORIENTED_EDGE('',*,*,#534,.T.);
#674=ORIENTED_EDGE('',*,*,#532,.F.);
#675=ORIENTED_EDGE('',*,*,#535,.T.);
#676=ORIENTED_EDGE('',*,*,#536,.T.);
#677=ORIENTED_EDGE('',*,*,#537,.T.);
#678=ORIENTED_EDGE('',*,*,#538,.T.);
#679=ORIENTED_EDGE('',*,*,#531,.T.);
#680=ORIENTED_EDGE('',*,*,#539,.T.);
#681=ORIENTED_EDGE('',*,*,#540,.T.);
#682=ORIENTED_EDGE('',*,*,#541,.T.);
#683=ORIENTED_EDGE('',*,*,#529,.T.);
#684=ORIENTED_EDGE('',*,*,#542,.T.);
#685=ORIENTED_EDGE('',*,*,#543,.T.);
#686=ORIENTED_EDGE('',*,*,#544,.T.);
#687=ORIENTED_EDGE('',*,*,#540,.F.);
#688=ORIENTED_EDGE('',*,*,#545,.T.);
#689=ORIENTED_EDGE('',*,*,#546,.F.);
#690=ORIENTED_EDGE('',*,*,#539,.F.);
#691=ORIENTED_EDGE('',*,*,#533,.F.);
#692=ORIENTED_EDGE('',*,*,#547,.F.);
#693=ORIENTED_EDGE('',*,*,#548,.F.);
#694=ORIENTED_EDGE('',*,*,#549,.F.);
#695=ORIENTED_EDGE('',*,*,#550,.F.);
#696=ORIENTED_EDGE('',*,*,#551,.F.);
#697=ORIENTED_EDGE('',*,*,#536,.F.);
#698=ORIENTED_EDGE('',*,*,#552,.T.);
#699=ORIENTED_EDGE('',*,*,#553,.F.);
#700=ORIENTED_EDGE('',*,*,#547,.T.);
#701=ORIENTED_EDGE('',*,*,#535,.F.);
#702=ORIENTED_EDGE('',*,*,#554,.T.);
#703=ORIENTED_EDGE('',*,*,#555,.T.);
#704=ORIENTED_EDGE('',*,*,#556,.T.);
#705=ORIENTED_EDGE('',*,*,#534,.F.);
#706=ORIENTED_EDGE('',*,*,#541,.F.);
#707=ORIENTED_EDGE('',*,*,#557,.F.);
#708=ORIENTED_EDGE('',*,*,#554,.F.);
#709=ORIENTED_EDGE('',*,*,#544,.F.);
#710=ORIENTED_EDGE('',*,*,#558,.T.);
#711=ORIENTED_EDGE('',*,*,#559,.T.);
#712=ORIENTED_EDGE('',*,*,#557,.T.);
#713=ORIENTED_EDGE('',*,*,#560,.T.);
#714=ORIENTED_EDGE('',*,*,#561,.F.);
#715=ORIENTED_EDGE('',*,*,#562,.T.);
#716=ORIENTED_EDGE('',*,*,#563,.T.);
#717=ORIENTED_EDGE('',*,*,#564,.T.);
#718=ORIENTED_EDGE('',*,*,#537,.F.);
#719=ORIENTED_EDGE('',*,*,#546,.T.);
#720=ORIENTED_EDGE('',*,*,#565,.T.);
#721=ORIENTED_EDGE('',*,*,#566,.F.);
#722=ORIENTED_EDGE('',*,*,#567,.F.);
#723=ORIENTED_EDGE('',*,*,#568,.T.);
#724=ORIENTED_EDGE('',*,*,#569,.F.);
#725=ORIENTED_EDGE('',*,*,#570,.F.);
#726=ORIENTED_EDGE('',*,*,#571,.F.);
#727=ORIENTED_EDGE('',*,*,#572,.F.);
#728=ORIENTED_EDGE('',*,*,#551,.T.);
#729=ORIENTED_EDGE('',*,*,#571,.T.);
#730=ORIENTED_EDGE('',*,*,#573,.T.);
#731=ORIENTED_EDGE('',*,*,#565,.F.);
#732=ORIENTED_EDGE('',*,*,#574,.T.);
#733=ORIENTED_EDGE('',*,*,#575,.F.);
#734=ORIENTED_EDGE('',*,*,#576,.F.);
#735=ORIENTED_EDGE('',*,*,#577,.F.);
#736=ORIENTED_EDGE('',*,*,#575,.T.);
#737=ORIENTED_EDGE('',*,*,#578,.T.);
#738=ORIENTED_EDGE('',*,*,#567,.T.);
#739=ORIENTED_EDGE('',*,*,#579,.T.);
#740=ORIENTED_EDGE('',*,*,#580,.F.);
#741=ORIENTED_EDGE('',*,*,#581,.F.);
#742=ORIENTED_EDGE('',*,*,#582,.F.);
#743=ORIENTED_EDGE('',*,*,#581,.T.);
#744=ORIENTED_EDGE('',*,*,#583,.T.);
#745=ORIENTED_EDGE('',*,*,#576,.T.);
#746=ORIENTED_EDGE('',*,*,#584,.T.);
#747=ORIENTED_EDGE('',*,*,#572,.T.);
#748=ORIENTED_EDGE('',*,*,#550,.T.);
#749=ORIENTED_EDGE('',*,*,#582,.T.);
#750=ORIENTED_EDGE('',*,*,#585,.T.);
#751=ORIENTED_EDGE('',*,*,#586,.T.);
#752=ORIENTED_EDGE('',*,*,#580,.T.);
#753=ORIENTED_EDGE('',*,*,#549,.T.);
#754=ORIENTED_EDGE('',*,*,#587,.T.);
#755=ORIENTED_EDGE('',*,*,#548,.T.);
#756=ORIENTED_EDGE('',*,*,#553,.T.);
#757=ORIENTED_EDGE('',*,*,#588,.T.);
#758=ORIENTED_EDGE('',*,*,#587,.F.);
#759=ORIENTED_EDGE('',*,*,#589,.T.);
#760=ORIENTED_EDGE('',*,*,#590,.F.);
#761=ORIENTED_EDGE('',*,*,#555,.F.);
#762=ORIENTED_EDGE('',*,*,#559,.F.);
#763=ORIENTED_EDGE('',*,*,#591,.T.);
#764=ORIENTED_EDGE('',*,*,#592,.T.);
#765=ORIENTED_EDGE('',*,*,#590,.T.);
#766=ORIENTED_EDGE('',*,*,#593,.T.);
#767=ORIENTED_EDGE('',*,*,#594,.T.);
#768=ORIENTED_EDGE('',*,*,#595,.T.);
#769=ORIENTED_EDGE('',*,*,#577,.T.);
#770=ORIENTED_EDGE('',*,*,#596,.T.);
#771=ORIENTED_EDGE('',*,*,#566,.T.);
#772=ORIENTED_EDGE('',*,*,#597,.T.);
#773=ORIENTED_EDGE('',*,*,#570,.T.);
#774=ORIENTED_EDGE('',*,*,#598,.T.);
#775=ORIENTED_EDGE('',*,*,#599,.T.);
#776=ORIENTED_EDGE('',*,*,#569,.T.);
#777=ORIENTED_EDGE('',*,*,#600,.T.);
#778=ORIENTED_EDGE('',*,*,#563,.F.);
#779=ORIENTED_EDGE('',*,*,#573,.F.);
#780=ORIENTED_EDGE('',*,*,#597,.F.);
#781=ORIENTED_EDGE('',*,*,#599,.F.);
#782=ORIENTED_EDGE('',*,*,#601,.T.);
#783=ORIENTED_EDGE('',*,*,#564,.F.);
#784=ORIENTED_EDGE('',*,*,#601,.F.);
#785=ORIENTED_EDGE('',*,*,#562,.F.);
#786=ORIENTED_EDGE('',*,*,#602,.T.);
#787=ORIENTED_EDGE('',*,*,#603,.T.);
#788=ORIENTED_EDGE('',*,*,#604,.T.);
#789=ORIENTED_EDGE('',*,*,#605,.T.);
#790=ORIENTED_EDGE('',*,*,#606,.T.);
#791=ORIENTED_EDGE('',*,*,#607,.F.);
#792=ORIENTED_EDGE('',*,*,#608,.F.);
#793=ORIENTED_EDGE('',*,*,#609,.F.);
#794=ORIENTED_EDGE('',*,*,#610,.F.);
#795=ORIENTED_EDGE('',*,*,#538,.F.);
#796=ORIENTED_EDGE('',*,*,#602,.F.);
#797=ORIENTED_EDGE('',*,*,#561,.T.);
#798=ORIENTED_EDGE('',*,*,#611,.F.);
#799=ORIENTED_EDGE('',*,*,#545,.F.);
#800=ORIENTED_EDGE('',*,*,#542,.F.);
#801=ORIENTED_EDGE('',*,*,#579,.F.);
#802=ORIENTED_EDGE('',*,*,#598,.F.);
#803=ORIENTED_EDGE('',*,*,#585,.F.);
#804=ORIENTED_EDGE('',*,*,#584,.F.);
#805=ORIENTED_EDGE('',*,*,#612,.T.);
#806=ORIENTED_EDGE('',*,*,#613,.T.);
#807=ORIENTED_EDGE('',*,*,#614,.T.);
#808=ORIENTED_EDGE('',*,*,#615,.T.);
#809=ORIENTED_EDGE('',*,*,#614,.F.);
#810=ORIENTED_EDGE('',*,*,#616,.T.);
#811=ORIENTED_EDGE('',*,*,#617,.F.);
#812=ORIENTED_EDGE('',*,*,#618,.T.);
#813=ORIENTED_EDGE('',*,*,#619,.F.);
#814=ORIENTED_EDGE('',*,*,#620,.T.);
#815=ORIENTED_EDGE('',*,*,#621,.F.);
#816=ORIENTED_EDGE('',*,*,#622,.T.);
#817=ORIENTED_EDGE('',*,*,#623,.T.);
#818=ORIENTED_EDGE('',*,*,#624,.T.);
#819=ORIENTED_EDGE('',*,*,#625,.T.);
#820=ORIENTED_EDGE('',*,*,#626,.T.);
#821=ORIENTED_EDGE('',*,*,#588,.F.);
#822=ORIENTED_EDGE('',*,*,#627,.F.);
#823=ORIENTED_EDGE('',*,*,#591,.F.);
#824=ORIENTED_EDGE('',*,*,#628,.F.);
#825=ORIENTED_EDGE('',*,*,#629,.F.);
#826=ORIENTED_EDGE('',*,*,#616,.F.);
#827=ORIENTED_EDGE('',*,*,#613,.F.);
#828=ORIENTED_EDGE('',*,*,#630,.F.);
#829=ORIENTED_EDGE('',*,*,#594,.F.);
#830=ORIENTED_EDGE('',*,*,#631,.T.);
#831=ORIENTED_EDGE('',*,*,#632,.T.);
#832=ORIENTED_EDGE('',*,*,#633,.T.);
#833=ORIENTED_EDGE('',*,*,#634,.T.);
#834=ORIENTED_EDGE('',*,*,#635,.T.);
#835=ORIENTED_EDGE('',*,*,#636,.T.);
#836=ORIENTED_EDGE('',*,*,#637,.T.);
#837=ORIENTED_EDGE('',*,*,#638,.T.);
#838=ORIENTED_EDGE('',*,*,#639,.T.);
#839=ORIENTED_EDGE('',*,*,#617,.T.);
#840=ORIENTED_EDGE('',*,*,#629,.T.);
#841=ORIENTED_EDGE('',*,*,#640,.T.);
#842=ORIENTED_EDGE('',*,*,#641,.T.);
#843=ORIENTED_EDGE('',*,*,#611,.T.);
#844=ORIENTED_EDGE('',*,*,#560,.F.);
#845=ORIENTED_EDGE('',*,*,#600,.F.);
#846=ORIENTED_EDGE('',*,*,#568,.F.);
#847=ORIENTED_EDGE('',*,*,#578,.F.);
#848=ORIENTED_EDGE('',*,*,#574,.F.);
#849=ORIENTED_EDGE('',*,*,#595,.F.);
#850=ORIENTED_EDGE('',*,*,#630,.T.);
#851=ORIENTED_EDGE('',*,*,#612,.F.);
#852=ORIENTED_EDGE('',*,*,#642,.T.);
#853=ORIENTED_EDGE('',*,*,#643,.F.);
#854=ORIENTED_EDGE('',*,*,#644,.T.);
#855=ORIENTED_EDGE('',*,*,#645,.F.);
#856=ORIENTED_EDGE('',*,*,#646,.T.);
#857=ORIENTED_EDGE('',*,*,#640,.F.);
#858=ORIENTED_EDGE('',*,*,#628,.T.);
#859=ORIENTED_EDGE('',*,*,#593,.F.);
#860=ORIENTED_EDGE('',*,*,#589,.F.);
#861=ORIENTED_EDGE('',*,*,#558,.F.);
#862=ORIENTED_EDGE('',*,*,#543,.F.);
#863=ORIENTED_EDGE('',*,*,#647,.T.);
#864=ORIENTED_EDGE('',*,*,#648,.T.);
#865=ORIENTED_EDGE('',*,*,#649,.T.);
#866=ORIENTED_EDGE('',*,*,#650,.T.);
#867=ORIENTED_EDGE('',*,*,#592,.F.);
#868=ORIENTED_EDGE('',*,*,#627,.T.);
#869=ORIENTED_EDGE('',*,*,#552,.F.);
#870=ORIENTED_EDGE('',*,*,#556,.F.);
#871=ORIENTED_EDGE('',*,*,#586,.F.);
#872=ORIENTED_EDGE('',*,*,#631,.F.);
#873=ORIENTED_EDGE('',*,*,#596,.F.);
#874=ORIENTED_EDGE('',*,*,#583,.F.);
#875=ORIENTED_EDGE('',*,*,#632,.F.);
#876=ORIENTED_EDGE('',*,*,#651,.T.);
#877=ORIENTED_EDGE('',*,*,#609,.T.);
#878=ORIENTED_EDGE('',*,*,#651,.F.);
#879=ORIENTED_EDGE('',*,*,#635,.F.);
#880=ORIENTED_EDGE('',*,*,#652,.F.);
#881=ORIENTED_EDGE('',*,*,#604,.F.);
#882=ORIENTED_EDGE('',*,*,#653,.F.);
#883=ORIENTED_EDGE('',*,*,#636,.F.);
#884=ORIENTED_EDGE('',*,*,#653,.T.);
#885=ORIENTED_EDGE('',*,*,#603,.F.);
#886=ORIENTED_EDGE('',*,*,#654,.T.);
#887=ORIENTED_EDGE('',*,*,#633,.F.);
#888=ORIENTED_EDGE('',*,*,#654,.F.);
#889=ORIENTED_EDGE('',*,*,#606,.F.);
#890=ORIENTED_EDGE('',*,*,#655,.T.);
#891=ORIENTED_EDGE('',*,*,#634,.F.);
#892=ORIENTED_EDGE('',*,*,#655,.F.);
#893=ORIENTED_EDGE('',*,*,#605,.F.);
#894=ORIENTED_EDGE('',*,*,#652,.T.);
#895=ORIENTED_EDGE('',*,*,#637,.F.);
#896=ORIENTED_EDGE('',*,*,#656,.T.);
#897=ORIENTED_EDGE('',*,*,#607,.T.);
#898=ORIENTED_EDGE('',*,*,#656,.F.);
#899=ORIENTED_EDGE('',*,*,#638,.F.);
#900=ORIENTED_EDGE('',*,*,#657,.T.);
#901=ORIENTED_EDGE('',*,*,#608,.T.);
#902=ORIENTED_EDGE('',*,*,#657,.F.);
#903=ORIENTED_EDGE('',*,*,#639,.F.);
#904=ORIENTED_EDGE('',*,*,#658,.T.);
#905=ORIENTED_EDGE('',*,*,#610,.T.);
#906=ORIENTED_EDGE('',*,*,#658,.F.);
#907=ORIENTED_EDGE('',*,*,#641,.F.);
#908=ORIENTED_EDGE('',*,*,#646,.F.);
#909=ORIENTED_EDGE('',*,*,#659,.F.);
#910=ORIENTED_EDGE('',*,*,#618,.F.);
#911=ORIENTED_EDGE('',*,*,#650,.F.);
#912=ORIENTED_EDGE('',*,*,#660,.T.);
#913=ORIENTED_EDGE('',*,*,#626,.F.);
#914=ORIENTED_EDGE('',*,*,#660,.F.);
#915=ORIENTED_EDGE('',*,*,#649,.F.);
#916=ORIENTED_EDGE('',*,*,#661,.T.);
#917=ORIENTED_EDGE('',*,*,#625,.F.);
#918=ORIENTED_EDGE('',*,*,#661,.F.);
#919=ORIENTED_EDGE('',*,*,#648,.F.);
#920=ORIENTED_EDGE('',*,*,#662,.T.);
#921=ORIENTED_EDGE('',*,*,#624,.F.);
#922=ORIENTED_EDGE('',*,*,#662,.F.);
#923=ORIENTED_EDGE('',*,*,#647,.F.);
#924=ORIENTED_EDGE('',*,*,#663,.T.);
#925=ORIENTED_EDGE('',*,*,#623,.F.);
#926=ORIENTED_EDGE('',*,*,#663,.F.);
#927=ORIENTED_EDGE('',*,*,#619,.T.);
#928=ORIENTED_EDGE('',*,*,#659,.T.);
#929=ORIENTED_EDGE('',*,*,#645,.T.);
#930=ORIENTED_EDGE('',*,*,#664,.T.);
#931=ORIENTED_EDGE('',*,*,#643,.T.);
#932=ORIENTED_EDGE('',*,*,#665,.T.);
#933=ORIENTED_EDGE('',*,*,#621,.T.);
#934=ORIENTED_EDGE('',*,*,#666,.T.);
#935=ORIENTED_EDGE('',*,*,#615,.F.);
#936=ORIENTED_EDGE('',*,*,#622,.F.);
#937=ORIENTED_EDGE('',*,*,#665,.F.);
#938=ORIENTED_EDGE('',*,*,#642,.F.);
#939=ORIENTED_EDGE('',*,*,#664,.F.);
#940=ORIENTED_EDGE('',*,*,#644,.F.);
#941=ORIENTED_EDGE('',*,*,#666,.F.);
#942=ORIENTED_EDGE('',*,*,#620,.F.);
#943=SPHERICAL_SURFACE('',#1026,2.);
#944=SPHERICAL_SURFACE('',#1032,2.);
#945=SPHERICAL_SURFACE('',#1059,2.);
#946=SPHERICAL_SURFACE('',#1069,2.);
#947=ADVANCED_FACE('',(#267),#943,.T.);
#948=ADVANCED_FACE('',(#268),#237,.T.);
#949=ADVANCED_FACE('',(#269),#944,.T.);
#950=ADVANCED_FACE('',(#270),#238,.T.);
#951=ADVANCED_FACE('',(#271),#239,.T.);
#952=ADVANCED_FACE('',(#272),#69,.T.);
#953=ADVANCED_FACE('',(#273),#42,.T.);
#954=ADVANCED_FACE('',(#274),#240,.T.);
#955=ADVANCED_FACE('',(#275),#241,.T.);
#956=ADVANCED_FACE('',(#276),#43,.T.);
#957=ADVANCED_FACE('',(#277),#242,.F.);
#958=ADVANCED_FACE('',(#278),#243,.F.);
#959=ADVANCED_FACE('',(#279),#244,.T.);
#960=ADVANCED_FACE('',(#280),#39,.T.);
#961=ADVANCED_FACE('',(#281),#945,.T.);
#962=ADVANCED_FACE('',(#282),#245,.T.);
#963=ADVANCED_FACE('',(#283),#40,.T.);
#964=ADVANCED_FACE('',(#284),#246,.F.);
#965=ADVANCED_FACE('',(#285),#946,.T.);
#966=ADVANCED_FACE('',(#286),#247,.T.);
#967=ADVANCED_FACE('',(#287),#248,.T.);
#968=ADVANCED_FACE('',(#288),#249,.T.);
#969=ADVANCED_FACE('',(#289),#250,.T.);
#970=ADVANCED_FACE('',(#290),#41,.T.);
#971=ADVANCED_FACE('',(#291),#251,.F.);
#972=ADVANCED_FACE('',(#292),#252,.F.);
#973=ADVANCED_FACE('',(#293),#253,.T.);
#974=ADVANCED_FACE('',(#294),#254,.F.);
#975=ADVANCED_FACE('',(#295),#44,.T.);
#976=ADVANCED_FACE('',(#296,#21,#22,#23,#24,#25),#45,.T.);
#977=ADVANCED_FACE('',(#297),#46,.T.);
#978=ADVANCED_FACE('',(#298),#47,.F.);
#979=ADVANCED_FACE('',(#299),#255,.T.);
#980=ADVANCED_FACE('',(#300,#26,#27,#28,#29),#48,.T.);
#981=ADVANCED_FACE('',(#301,#30,#31,#32,#33,#34),#49,.T.);
#982=ADVANCED_FACE('',(#302),#256,.T.);
#983=ADVANCED_FACE('',(#303,#35,#36,#37,#38),#50,.T.);
#984=ADVANCED_FACE('',(#304),#51,.T.);
#985=ADVANCED_FACE('',(#305),#52,.T.);
#986=ADVANCED_FACE('',(#306),#257,.F.);
#987=ADVANCED_FACE('',(#307),#53,.F.);
#988=ADVANCED_FACE('',(#308),#54,.F.);
#989=ADVANCED_FACE('',(#309),#55,.F.);
#990=ADVANCED_FACE('',(#310),#56,.F.);
#991=ADVANCED_FACE('',(#311),#258,.F.);
#992=ADVANCED_FACE('',(#312),#259,.F.);
#993=ADVANCED_FACE('',(#313),#260,.F.);
#994=ADVANCED_FACE('',(#314),#57,.T.);
#995=ADVANCED_FACE('',(#315),#261,.F.);
#996=ADVANCED_FACE('',(#316),#262,.F.);
#997=ADVANCED_FACE('',(#317),#263,.F.);
#998=ADVANCED_FACE('',(#318),#264,.F.);
#999=ADVANCED_FACE('',(#319),#265,.T.);
#1000=ADVANCED_FACE('',(#320),#266,.T.);
#1001=ADVANCED_FACE('',(#321),#58,.T.);
#1002=ADVANCED_FACE('',(#322),#59,.T.);
#1003=CLOSED_SHELL('',(#947,#948,#949,#950,#951,#952,#953,#954,#955,#956,
#957,#958,#959,#960,#961,#962,#963,#964,#965,#966,#967,#968,#969,#970,#971,
#972,#973,#974,#975,#976,#977,#978,#979,#980,#981,#982,#983,#984,#985,#986,
#987,#988,#989,#990,#991,#992,#993,#994,#995,#996,#997,#998,#999,#1000,
#1001,#1002));
#1004=DERIVED_UNIT_ELEMENT(#1007,1.);
#1005=DERIVED_UNIT_ELEMENT(#1812,-3.);
#1006=DIMENSIONAL_EXPONENTS(0.,1.,0.,0.,0.,0.,0.);
#1007=(
CONVERSION_BASED_UNIT('gram',#1009)
MASS_UNIT()
NAMED_UNIT(#1006)
);
#1008=(
MASS_UNIT()
NAMED_UNIT(*)
SI_UNIT(.KILO.,.GRAM.)
);
#1009=MASS_MEASURE_WITH_UNIT(MASS_MEASURE(0.001),#1008);
#1010=DERIVED_UNIT((#1004,#1005));
#1011=MEASURE_REPRESENTATION_ITEM('density measure',
POSITIVE_RATIO_MEASURE(1.),#1010);
#1012=PROPERTY_DEFINITION_REPRESENTATION(#1017,#1014);
#1013=PROPERTY_DEFINITION_REPRESENTATION(#1018,#1015);
#1014=REPRESENTATION('material name',(#1016),#1809);
#1015=REPRESENTATION('density',(#1011),#1809);
#1016=DESCRIPTIVE_REPRESENTATION_ITEM('Og\X\F3lny','Og\X\F3lny');
#1017=PROPERTY_DEFINITION('material property','material name',#1819);
#1018=PROPERTY_DEFINITION('material property','density of part',#1819);
#1019=DATE_TIME_ROLE('creation_date');
#1020=APPLIED_DATE_AND_TIME_ASSIGNMENT(#1021,#1019,(#1819));
#1021=DATE_AND_TIME(#1022,#1023);
#1022=CALENDAR_DATE(2025,25,11);
#1023=LOCAL_TIME(0,0,0.,#1024);
#1024=COORDINATED_UNIVERSAL_TIME_OFFSET(0,0,.BEHIND.);
#1025=AXIS2_PLACEMENT_3D('',#1442,#1138,#1139);
#1026=AXIS2_PLACEMENT_3D('',#1443,#1140,#1141);
#1027=AXIS2_PLACEMENT_3D('',#1446,#1142,#1143);
#1028=AXIS2_PLACEMENT_3D('',#1448,#1144,#1145);
#1029=AXIS2_PLACEMENT_3D('',#1449,#1146,#1147);
#1030=AXIS2_PLACEMENT_3D('',#1450,#1148,#1149);
#1031=AXIS2_PLACEMENT_3D('',#1453,#1150,#1151);
#1032=AXIS2_PLACEMENT_3D('',#1456,#1154,#1155);
#1033=AXIS2_PLACEMENT_3D('',#1458,#1156,#1157);
#1034=AXIS2_PLACEMENT_3D('',#1459,#1158,#1159);
#1035=AXIS2_PLACEMENT_3D('',#1460,#1160,#1161);
#1036=AXIS2_PLACEMENT_3D('',#1463,#1162,#1163);
#1037=AXIS2_PLACEMENT_3D('',#1466,#1166,#1167);
#1038=AXIS2_PLACEMENT_3D('',#1469,#1168,#1169);
#1039=AXIS2_PLACEMENT_3D('',#1472,#1172,#1173);
#1040=AXIS2_PLACEMENT_3D('',#1485,#1174,#1175);
#1041=AXIS2_PLACEMENT_3D('',#1486,#1176,#1177);
#1042=AXIS2_PLACEMENT_3D('',#1487,#1178,#1179);
#1043=AXIS2_PLACEMENT_3D('',#1499,#1186,#1187);
#1044=AXIS2_PLACEMENT_3D('',#1502,#1189,#1190);
#1045=AXIS2_PLACEMENT_3D('',#1503,#1191,#1192);
#1046=AXIS2_PLACEMENT_3D('',#1507,#1194,#1195);
#1047=AXIS2_PLACEMENT_3D('',#1509,#1197,#1198);
#1048=AXIS2_PLACEMENT_3D('',#1511,#1200,#1201);
#1049=AXIS2_PLACEMENT_3D('',#1514,#1203,#1204);
#1050=AXIS2_PLACEMENT_3D('',#1515,#1205,#1206);
#1051=AXIS2_PLACEMENT_3D('',#1520,#1208,#1209);
#1052=AXIS2_PLACEMENT_3D('',#1523,#1211,#1212);
#1053=AXIS2_PLACEMENT_3D('',#1524,#1213,#1214);
#1054=AXIS2_PLACEMENT_3D('',#1527,#1216,#1217);
#1055=AXIS2_PLACEMENT_3D('',#1555,#1218,#1219);
#1056=AXIS2_PLACEMENT_3D('',#1557,#1220,#1221);
#1057=AXIS2_PLACEMENT_3D('',#1559,#1222,#1223);
#1058=AXIS2_PLACEMENT_3D('',#1560,#1224,#1225);
#1059=AXIS2_PLACEMENT_3D('',#1561,#1226,#1227);
#1060=AXIS2_PLACEMENT_3D('',#1564,#1228,#1229);
#1061=AXIS2_PLACEMENT_3D('',#1565,#1230,#1231);
#1062=AXIS2_PLACEMENT_3D('',#1566,#1232,#1233);
#1063=AXIS2_PLACEMENT_3D('',#1567,#1234,#1235);
#1064=AXIS2_PLACEMENT_3D('',#1596,#1237,#1238);
#1065=AXIS2_PLACEMENT_3D('',#1598,#1239,#1240);
#1066=AXIS2_PLACEMENT_3D('',#1600,#1241,#1242);
#1067=AXIS2_PLACEMENT_3D('',#1601,#1243,#1244);
#1068=AXIS2_PLACEMENT_3D('',#1602,#1245,#1246);
#1069=AXIS2_PLACEMENT_3D('',#1605,#1249,#1250);
#1070=AXIS2_PLACEMENT_3D('',#1607,#1251,#1252);
#1071=AXIS2_PLACEMENT_3D('',#1609,#1253,#1254);
#1072=AXIS2_PLACEMENT_3D('',#1610,#1255,#1256);
#1073=AXIS2_PLACEMENT_3D('',#1611,#1257,#1258);
#1074=AXIS2_PLACEMENT_3D('',#1614,#1261,#1262);
#1075=AXIS2_PLACEMENT_3D('',#1616,#1264,#1265);
#1076=AXIS2_PLACEMENT_3D('',#1619,#1267,#1268);
#1077=AXIS2_PLACEMENT_3D('',#1620,#1269,#1270);
#1078=AXIS2_PLACEMENT_3D('',#1648,#1272,#1273);
#1079=AXIS2_PLACEMENT_3D('',#1649,#1274,#1275);
#1080=AXIS2_PLACEMENT_3D('',#1650,#1276,#1277);
#1081=AXIS2_PLACEMENT_3D('',#1653,#1278,#1279);
#1082=AXIS2_PLACEMENT_3D('',#1656,#1282,#1283);
#1083=AXIS2_PLACEMENT_3D('',#1659,#1284,#1285);
#1084=AXIS2_PLACEMENT_3D('',#1662,#1288,#1289);
#1085=AXIS2_PLACEMENT_3D('',#1665,#1292,#1293);
#1086=AXIS2_PLACEMENT_3D('',#1668,#1296,#1297);
#1087=AXIS2_PLACEMENT_3D('',#1670,#1299,#1300);
#1088=AXIS2_PLACEMENT_3D('',#1681,#1306,#1307);
#1089=AXIS2_PLACEMENT_3D('',#1683,#1308,#1309);
#1090=AXIS2_PLACEMENT_3D('',#1685,#1310,#1311);
#1091=AXIS2_PLACEMENT_3D('',#1687,#1312,#1313);
#1092=AXIS2_PLACEMENT_3D('',#1688,#1314,#1315);
#1093=AXIS2_PLACEMENT_3D('',#1690,#1317,#1318);
#1094=AXIS2_PLACEMENT_3D('',#1691,#1319,#1320);
#1095=AXIS2_PLACEMENT_3D('',#1694,#1321,#1322);
#1096=AXIS2_PLACEMENT_3D('',#1698,#1324,#1325);
#1097=AXIS2_PLACEMENT_3D('',#1700,#1327,#1328);
#1098=AXIS2_PLACEMENT_3D('',#1704,#1330,#1331);
#1099=AXIS2_PLACEMENT_3D('',#1708,#1333,#1334);
#1100=AXIS2_PLACEMENT_3D('',#1712,#1336,#1337);
#1101=AXIS2_PLACEMENT_3D('',#1715,#1339,#1340);
#1102=AXIS2_PLACEMENT_3D('',#1717,#1341,#1342);
#1103=AXIS2_PLACEMENT_3D('',#1719,#1343,#1344);
#1104=AXIS2_PLACEMENT_3D('',#1721,#1345,#1346);
#1105=AXIS2_PLACEMENT_3D('',#1722,#1347,#1348);
#1106=AXIS2_PLACEMENT_3D('',#1730,#1354,#1355);
#1107=AXIS2_PLACEMENT_3D('',#1740,#1360,#1361);
#1108=AXIS2_PLACEMENT_3D('',#1742,#1362,#1363);
#1109=AXIS2_PLACEMENT_3D('',#1744,#1364,#1365);
#1110=AXIS2_PLACEMENT_3D('',#1745,#1366,#1367);
#1111=AXIS2_PLACEMENT_3D('',#1747,#1368,#1369);
#1112=AXIS2_PLACEMENT_3D('',#1749,#1371,#1372);
#1113=AXIS2_PLACEMENT_3D('',#1753,#1374,#1375);
#1114=AXIS2_PLACEMENT_3D('',#1757,#1377,#1378);
#1115=AXIS2_PLACEMENT_3D('',#1760,#1380,#1381);
#1116=AXIS2_PLACEMENT_3D('',#1762,#1382,#1383);
#1117=AXIS2_PLACEMENT_3D('',#1764,#1384,#1385);
#1118=AXIS2_PLACEMENT_3D('',#1766,#1386,#1387);
#1119=AXIS2_PLACEMENT_3D('',#1767,#1388,#1389);
#1120=AXIS2_PLACEMENT_3D('',#1768,#1390,#1391);
#1121=AXIS2_PLACEMENT_3D('',#1769,#1392,#1393);
#1122=AXIS2_PLACEMENT_3D('',#1771,#1395,#1396);
#1123=AXIS2_PLACEMENT_3D('',#1774,#1399,#1400);
#1124=AXIS2_PLACEMENT_3D('',#1776,#1402,#1403);
#1125=AXIS2_PLACEMENT_3D('',#1778,#1405,#1406);
#1126=AXIS2_PLACEMENT_3D('',#1779,#1407,#1408);
#1127=AXIS2_PLACEMENT_3D('',#1781,#1410,#1411);
#1128=AXIS2_PLACEMENT_3D('',#1783,#1413,#1414);
#1129=AXIS2_PLACEMENT_3D('',#1785,#1416,#1417);
#1130=AXIS2_PLACEMENT_3D('',#1787,#1419,#1420);
#1131=AXIS2_PLACEMENT_3D('',#1789,#1422,#1423);
#1132=AXIS2_PLACEMENT_3D('',#1791,#1425,#1426);
#1133=AXIS2_PLACEMENT_3D('',#1793,#1428,#1429);
#1134=AXIS2_PLACEMENT_3D('',#1795,#1431,#1432);
#1135=AXIS2_PLACEMENT_3D('',#1797,#1434,#1435);
#1136=AXIS2_PLACEMENT_3D('',#1800,#1438,#1439);
#1137=AXIS2_PLACEMENT_3D('',#1801,#1440,#1441);
#1138=DIRECTION('axis',(0.,0.,1.));
#1139=DIRECTION('refdir',(1.,0.,0.));
#1140=DIRECTION('center_axis',(0.,0.,1.));
#1141=DIRECTION('ref_axis',(-0.707106781186547,0.707106781186548,0.));
#1142=DIRECTION('center_axis',(-4.57262342040793E-15,0.957826285221152,
-0.287347885566343));
#1143=DIRECTION('ref_axis',(0.,0.287347885566343,0.957826285221152));
#1144=DIRECTION('center_axis',(-1.,0.,0.));
#1145=DIRECTION('ref_axis',(0.,1.,0.));
#1146=DIRECTION('center_axis',(0.,2.77555756156289E-16,1.));
#1147=DIRECTION('ref_axis',(-1.,0.,0.));
#1148=DIRECTION('center_axis',(1.,0.,0.));
#1149=DIRECTION('ref_axis',(0.,0.802292928289396,0.596930529640449));
#1150=DIRECTION('center_axis',(-1.,0.,0.));
#1151=DIRECTION('ref_axis',(0.,0.287347885566347,0.957826285221151));
#1152=DIRECTION('',(-1.,0.,0.));
#1153=DIRECTION('',(1.,0.,0.));
#1154=DIRECTION('center_axis',(0.,0.,1.));
#1155=DIRECTION('ref_axis',(1.,0.,0.));
#1156=DIRECTION('center_axis',(0.,0.957826285221151,-0.287347885566345));
#1157=DIRECTION('ref_axis',(0.707106781186549,0.203185638443579,0.677285461478595));
#1158=DIRECTION('center_axis',(0.,0.,1.));
#1159=DIRECTION('ref_axis',(0.707106781186545,0.70710678118655,0.));
#1160=DIRECTION('center_axis',(0.,0.,1.));
#1161=DIRECTION('ref_axis',(-0.707106781186546,0.707106781186549,0.));
#1162=DIRECTION('center_axis',(-0.707106781186547,0.,-0.707106781186548));
#1163=DIRECTION('ref_axis',(-0.707106781186548,0.,0.707106781186547));
#1164=DIRECTION('',(0.,0.,1.));
#1165=DIRECTION('',(0.,0.,-1.));
#1166=DIRECTION('center_axis',(0.,0.957826285221151,-0.287347885566345));
#1167=DIRECTION('ref_axis',(-0.707106781186548,0.203185638443577,0.677285461478597));
#1168=DIRECTION('center_axis',(0.,0.957826285221151,-0.287347885566345));
#1169=DIRECTION('ref_axis',(-1.,0.,0.));
#1170=DIRECTION('',(0.,0.957826285221151,-0.287347885566345));
#1171=DIRECTION('',(0.,-0.957826285221151,0.287347885566345));
#1172=DIRECTION('center_axis',(-1.,0.,0.));
#1173=DIRECTION('ref_axis',(0.,0.,1.));
#1174=DIRECTION('center_axis',(1.,0.,0.));
#1175=DIRECTION('ref_axis',(0.,-0.802292928289397,-0.596930529640447));
#1176=DIRECTION('center_axis',(-1.,0.,0.));
#1177=DIRECTION('ref_axis',(0.,-0.802292928289397,-0.596930529640447));
#1178=DIRECTION('center_axis',(0.,1.,0.));
#1179=DIRECTION('ref_axis',(0.,0.,1.));
#1180=DIRECTION('',(-1.,0.,0.));
#1181=DIRECTION('',(0.,0.,1.));
#1182=DIRECTION('',(1.,0.,0.));
#1183=DIRECTION('',(0.,0.,-1.));
#1184=DIRECTION('',(-1.,0.,0.));
#1185=DIRECTION('',(0.,0.,1.));
#1186=DIRECTION('center_axis',(0.,0.,-1.));
#1187=DIRECTION('ref_axis',(0.707106781186546,0.707106781186549,0.));
#1188=DIRECTION('',(0.,0.,-1.));
#1189=DIRECTION('center_axis',(-0.707106781186547,0.,-0.707106781186548));
#1190=DIRECTION('ref_axis',(0.707106781186548,0.,-0.707106781186547));
#1191=DIRECTION('center_axis',(0.,-0.957826285221151,0.287347885566345));
#1192=DIRECTION('ref_axis',(0.707106781186548,0.203185638443577,0.677285461478596));
#1193=DIRECTION('',(0.,-0.957826285221151,0.287347885566345));
#1194=DIRECTION('center_axis',(1.07599321796228E-15,-0.969168531093622,
-0.246398779091599));
#1195=DIRECTION('ref_axis',(0.,-0.246398779091599,0.969168531093622));
#1196=DIRECTION('',(0.,0.957826285221151,-0.287347885566345));
#1197=DIRECTION('center_axis',(0.,0.287347885566345,0.957826285221151));
#1198=DIRECTION('ref_axis',(0.,-0.957826285221151,0.287347885566345));
#1199=DIRECTION('',(-1.,0.,0.));
#1200=DIRECTION('center_axis',(-1.,0.,0.));
#1201=DIRECTION('ref_axis',(0.,-0.802292928289396,-0.596930529640448));
#1202=DIRECTION('',(1.,0.,0.));
#1203=DIRECTION('center_axis',(1.,0.,0.));
#1204=DIRECTION('ref_axis',(0.,-1.,0.));
#1205=DIRECTION('center_axis',(-1.,0.,0.));
#1206=DIRECTION('ref_axis',(0.,-0.707106781186548,-0.707106781186547));
#1207=DIRECTION('',(1.,0.,0.));
#1208=DIRECTION('center_axis',(-1.,0.,0.));
#1209=DIRECTION('ref_axis',(0.,-0.707106781186548,-0.707106781186547));
#1210=DIRECTION('',(-1.,0.,0.));
#1211=DIRECTION('center_axis',(-0.70710678118655,-1.96261557335471E-16,
0.707106781186545));
#1212=DIRECTION('ref_axis',(0.707106781186545,-1.96261557335472E-16,0.70710678118655));
#1213=DIRECTION('center_axis',(1.,0.,0.));
#1214=DIRECTION('ref_axis',(0.,0.707106781186549,0.707106781186546));
#1215=DIRECTION('',(1.,0.,0.));
#1216=DIRECTION('center_axis',(0.707106781186546,1.66822323735151E-15,-0.707106781186549));
#1217=DIRECTION('ref_axis',(-0.707106781186549,1.6682232373515E-15,-0.707106781186546));
#1218=DIRECTION('center_axis',(1.07599321796228E-15,-0.969168531093622,
-0.246398779091599));
#1219=DIRECTION('ref_axis',(-1.90401677915851E-15,-0.246398779091599,0.969168531093622));
#1220=DIRECTION('center_axis',(1.,0.,0.));
#1221=DIRECTION('ref_axis',(0.,-1.,0.));
#1222=DIRECTION('center_axis',(0.,1.,0.));
#1223=DIRECTION('ref_axis',(-6.64625497152315E-16,0.,1.));
#1224=DIRECTION('center_axis',(0.,0.,1.));
#1225=DIRECTION('ref_axis',(-1.,0.,0.));
#1226=DIRECTION('center_axis',(0.,0.,1.));
#1227=DIRECTION('ref_axis',(1.,0.,0.));
#1228=DIRECTION('center_axis',(0.,0.957826285221151,-0.287347885566347));
#1229=DIRECTION('ref_axis',(1.,0.,0.));
#1230=DIRECTION('center_axis',(0.,0.,1.));
#1231=DIRECTION('ref_axis',(0.,1.,0.));
#1232=DIRECTION('center_axis',(1.,0.,0.));
#1233=DIRECTION('ref_axis',(0.,0.287347885566347,0.957826285221151));
#1234=DIRECTION('center_axis',(0.,0.,-1.));
#1235=DIRECTION('ref_axis',(0.707106781186546,0.707106781186549,0.));
#1236=DIRECTION('',(0.,0.,-1.));
#1237=DIRECTION('center_axis',(0.,1.,0.));
#1238=DIRECTION('ref_axis',(-3.32312748576157E-16,0.,1.));
#1239=DIRECTION('center_axis',(-1.,0.,0.));
#1240=DIRECTION('ref_axis',(0.,-0.287347885566345,-0.957826285221152));
#1241=DIRECTION('center_axis',(0.,-0.969168531093622,-0.2463987790916));
#1242=DIRECTION('ref_axis',(0.,-0.2463987790916,0.969168531093622));
#1243=DIRECTION('center_axis',(0.,0.,1.));
#1244=DIRECTION('ref_axis',(0.,-1.,0.));
#1245=DIRECTION('center_axis',(-1.,0.,0.));
#1246=DIRECTION('ref_axis',(0.,-0.802292928289396,-0.596930529640448));
#1247=DIRECTION('',(1.,0.,0.));
#1248=DIRECTION('',(-1.,0.,0.));
#1249=DIRECTION('center_axis',(0.,0.,1.));
#1250=DIRECTION('ref_axis',(1.,0.,0.));
#1251=DIRECTION('center_axis',(0.,2.77555756156289E-16,1.));
#1252=DIRECTION('ref_axis',(-1.,0.,0.));
#1253=DIRECTION('center_axis',(-4.57262342040793E-15,0.957826285221152,
-0.287347885566343));
#1254=DIRECTION('ref_axis',(0.,0.287347885566343,0.957826285221152));
#1255=DIRECTION('center_axis',(-1.,0.,0.));
#1256=DIRECTION('ref_axis',(0.,1.,0.));
#1257=DIRECTION('center_axis',(0.,0.957826285221151,-0.287347885566345));
#1258=DIRECTION('ref_axis',(-0.707106781186548,0.203185638443577,0.677285461478597));
#1259=DIRECTION('',(0.,-0.957826285221151,0.287347885566345));
#1260=DIRECTION('',(0.,0.957826285221151,-0.287347885566345));
#1261=DIRECTION('center_axis',(1.,0.,0.));
#1262=DIRECTION('ref_axis',(0.,0.802292928289396,0.596930529640449));
#1263=DIRECTION('',(1.,0.,0.));
#1264=DIRECTION('center_axis',(0.,0.,1.));
#1265=DIRECTION('ref_axis',(-0.707106781186546,0.707106781186549,0.));
#1266=DIRECTION('',(0.,0.,1.));
#1267=DIRECTION('center_axis',(-0.707106781186547,1.57009245868377E-15,
0.707106781186548));
#1268=DIRECTION('ref_axis',(-0.707106781186548,1.57009245868377E-15,-0.707106781186547));
#1269=DIRECTION('center_axis',(-1.,0.,0.));
#1270=DIRECTION('ref_axis',(0.,0.707106781186549,-0.707106781186546));
#1271=DIRECTION('',(-1.,0.,0.));
#1272=DIRECTION('center_axis',(0.,1.,0.));
#1273=DIRECTION('ref_axis',(-6.64625497152315E-16,0.,1.));
#1274=DIRECTION('center_axis',(0.,0.,1.));
#1275=DIRECTION('ref_axis',(-1.,0.,0.));
#1276=DIRECTION('center_axis',(0.,0.,1.));
#1277=DIRECTION('ref_axis',(-0.707106781186546,-0.707106781186549,0.));
#1278=DIRECTION('center_axis',(0.,0.,-1.));
#1279=DIRECTION('ref_axis',(-0.707106781186546,-0.707106781186549,0.));
#1280=DIRECTION('',(0.,0.,1.));
#1281=DIRECTION('',(0.,0.,-1.));
#1282=DIRECTION('center_axis',(0.,0.,-1.));
#1283=DIRECTION('ref_axis',(0.707106781186546,-0.707106781186549,0.));
#1284=DIRECTION('center_axis',(0.,0.,-1.));
#1285=DIRECTION('ref_axis',(0.707106781186546,-0.707106781186549,0.));
#1286=DIRECTION('',(0.,0.,1.));
#1287=DIRECTION('',(0.,0.,-1.));
#1288=DIRECTION('center_axis',(0.,-0.957826285221151,0.287347885566345));
#1289=DIRECTION('ref_axis',(0.707106781186548,0.203185638443577,0.677285461478596));
#1290=DIRECTION('',(0.,0.957826285221151,-0.287347885566345));
#1291=DIRECTION('',(0.,-0.957826285221151,0.287347885566345));
#1292=DIRECTION('center_axis',(0.,0.,1.));
#1293=DIRECTION('ref_axis',(-0.707106781186548,-0.707106781186548,0.));
#1294=DIRECTION('',(0.,0.,1.));
#1295=DIRECTION('',(0.,0.,-1.));
#1296=DIRECTION('center_axis',(1.,0.,0.));
#1297=DIRECTION('ref_axis',(0.,0.,-1.));
#1298=DIRECTION('',(0.,1.,0.));
#1299=DIRECTION('center_axis',(0.,0.,1.));
#1300=DIRECTION('ref_axis',(1.,0.,0.));
#1301=DIRECTION('',(0.,1.,0.));
#1302=DIRECTION('',(0.,-1.,0.));
#1303=DIRECTION('',(-1.,0.,0.));
#1304=DIRECTION('',(2.01858731750029E-16,1.,0.));
#1305=DIRECTION('',(1.,2.11471052309554E-16,0.));
#1306=DIRECTION('center_axis',(0.,0.,1.));
#1307=DIRECTION('ref_axis',(-1.,0.,0.));
#1308=DIRECTION('center_axis',(0.,0.,1.));
#1309=DIRECTION('ref_axis',(-1.,0.,0.));
#1310=DIRECTION('center_axis',(0.,0.,1.));
#1311=DIRECTION('ref_axis',(-1.,0.,0.));
#1312=DIRECTION('center_axis',(0.,0.,1.));
#1313=DIRECTION('ref_axis',(-1.,0.,0.));
#1314=DIRECTION('center_axis',(-1.,0.,0.));
#1315=DIRECTION('ref_axis',(0.,0.,1.));
#1316=DIRECTION('',(0.,0.,-1.));
#1317=DIRECTION('center_axis',(0.,-0.287347885566345,-0.957826285221151));
#1318=DIRECTION('ref_axis',(0.,-0.957826285221151,0.287347885566345));
#1319=DIRECTION('center_axis',(0.,1.,0.));
#1320=DIRECTION('ref_axis',(-0.707106781186547,0.,-0.707106781186548));
#1321=DIRECTION('center_axis',(0.,-1.,0.));
#1322=DIRECTION('ref_axis',(-0.707106781186547,0.,-0.707106781186548));
#1323=DIRECTION('',(0.,-1.,0.));
#1324=DIRECTION('center_axis',(0.,1.,0.));
#1325=DIRECTION('ref_axis',(-0.707106781186547,0.,-0.707106781186548));
#1326=DIRECTION('',(0.,1.,0.));
#1327=DIRECTION('center_axis',(0.,-1.,0.));
#1328=DIRECTION('ref_axis',(0.,0.,-1.));
#1329=DIRECTION('',(1.,0.,0.));
#1330=DIRECTION('center_axis',(0.,1.,0.));
#1331=DIRECTION('ref_axis',(0.707106781186546,0.,-0.707106781186549));
#1332=DIRECTION('',(1.97372982155583E-16,0.,1.));
#1333=DIRECTION('center_axis',(0.,1.,0.));
#1334=DIRECTION('ref_axis',(0.707106781186551,0.,0.707106781186544));
#1335=DIRECTION('',(-1.,0.,1.61486985400023E-16));
#1336=DIRECTION('center_axis',(0.,1.,0.));
#1337=DIRECTION('ref_axis',(-0.707106781186548,0.,0.707106781186548));
#1338=DIRECTION('',(-2.96059473233375E-16,0.,-1.));
#1339=DIRECTION('center_axis',(0.,1.,0.));
#1340=DIRECTION('ref_axis',(1.,0.,0.));
#1341=DIRECTION('center_axis',(0.,1.,0.));
#1342=DIRECTION('ref_axis',(1.,0.,0.));
#1343=DIRECTION('center_axis',(0.,1.,0.));
#1344=DIRECTION('ref_axis',(1.,0.,0.));
#1345=DIRECTION('center_axis',(0.,1.,0.));
#1346=DIRECTION('ref_axis',(-1.,0.,0.));
#1347=DIRECTION('center_axis',(0.,0.,-1.));
#1348=DIRECTION('ref_axis',(-1.,0.,0.));
#1349=DIRECTION('',(0.,1.,0.));
#1350=DIRECTION('',(-1.,0.,0.));
#1351=DIRECTION('',(0.,1.,0.));
#1352=DIRECTION('',(-1.,0.,0.));
#1353=DIRECTION('',(0.,1.,0.));
#1354=DIRECTION('center_axis',(0.,0.,1.));
#1355=DIRECTION('ref_axis',(-1.,0.,0.));
#1356=DIRECTION('',(-1.,-2.11471052309554E-16,0.));
#1357=DIRECTION('',(3.02788097625043E-16,-1.,0.));
#1358=DIRECTION('',(1.,0.,0.));
#1359=DIRECTION('',(-4.03717463500057E-16,1.,0.));
#1360=DIRECTION('center_axis',(0.,0.,1.));
#1361=DIRECTION('ref_axis',(-1.,0.,0.));
#1362=DIRECTION('center_axis',(0.,0.,1.));
#1363=DIRECTION('ref_axis',(-1.,0.,0.));
#1364=DIRECTION('center_axis',(0.,0.,1.));
#1365=DIRECTION('ref_axis',(-1.,0.,0.));
#1366=DIRECTION('center_axis',(0.,-1.,0.));
#1367=DIRECTION('ref_axis',(0.707106781186546,0.,-0.707106781186549));
#1368=DIRECTION('center_axis',(0.,-1.,0.));
#1369=DIRECTION('ref_axis',(0.707106781186546,0.,-0.707106781186549));
#1370=DIRECTION('',(0.,-1.,0.));
#1371=DIRECTION('center_axis',(0.,1.,0.));
#1372=DIRECTION('ref_axis',(0.,0.,1.));
#1373=DIRECTION('',(2.96059473233375E-16,0.,1.));
#1374=DIRECTION('center_axis',(0.,-1.,0.));
#1375=DIRECTION('ref_axis',(-0.707106781186548,0.,0.707106781186548));
#1376=DIRECTION('',(1.,0.,-1.61486985400023E-16));
#1377=DIRECTION('center_axis',(0.,-1.,0.));
#1378=DIRECTION('ref_axis',(0.707106781186551,0.,0.707106781186544));
#1379=DIRECTION('',(-1.97372982155583E-16,0.,-1.));
#1380=DIRECTION('center_axis',(0.,-1.,0.));
#1381=DIRECTION('ref_axis',(1.,0.,0.));
#1382=DIRECTION('center_axis',(0.,-1.,0.));
#1383=DIRECTION('ref_axis',(1.,0.,0.));
#1384=DIRECTION('center_axis',(0.,-1.,0.));
#1385=DIRECTION('ref_axis',(1.,0.,0.));
#1386=DIRECTION('center_axis',(0.,-1.,0.));
#1387=DIRECTION('ref_axis',(-1.,0.,0.));
#1388=DIRECTION('center_axis',(1.,0.,0.));
#1389=DIRECTION('ref_axis',(0.,0.,-1.));
#1390=DIRECTION('center_axis',(-1.,0.,0.));
#1391=DIRECTION('ref_axis',(0.,0.,1.));
#1392=DIRECTION('center_axis',(0.,0.,1.));
#1393=DIRECTION('ref_axis',(-1.,0.,0.));
#1394=DIRECTION('',(0.,0.,1.));
#1395=DIRECTION('center_axis',(0.,-1.,0.));
#1396=DIRECTION('ref_axis',(-1.,0.,5.5751459245246E-16));
#1397=DIRECTION('',(-4.44089209850063E-16,0.,-1.));
#1398=DIRECTION('',(5.9211894646675E-16,0.,1.));
#1399=DIRECTION('center_axis',(1.,4.03717463500057E-16,-4.44089209850063E-16));
#1400=DIRECTION('ref_axis',(4.03717463500057E-16,-1.,-2.25078377129175E-31));
#1401=DIRECTION('',(-4.44089209850063E-16,0.,-1.));
#1402=DIRECTION('center_axis',(-2.11471052309554E-16,1.,9.39120125263109E-32));
#1403=DIRECTION('ref_axis',(1.,2.11471052309554E-16,-5.5751459245246E-16));
#1404=DIRECTION('',(-4.44089209850063E-16,0.,-1.));
#1405=DIRECTION('center_axis',(-1.,-3.02788097625043E-16,4.44089209850063E-16));
#1406=DIRECTION('ref_axis',(-3.02788097625043E-16,1.,1.68808782846881E-31));
#1407=DIRECTION('center_axis',(0.,0.,1.));
#1408=DIRECTION('ref_axis',(-1.,0.,0.));
#1409=DIRECTION('',(0.,0.,1.));
#1410=DIRECTION('center_axis',(0.,0.,1.));
#1411=DIRECTION('ref_axis',(-1.,0.,0.));
#1412=DIRECTION('',(0.,0.,1.));
#1413=DIRECTION('center_axis',(0.,0.,1.));
#1414=DIRECTION('ref_axis',(-1.,0.,0.));
#1415=DIRECTION('',(0.,0.,1.));
#1416=DIRECTION('center_axis',(1.,0.,-1.97372982155583E-16));
#1417=DIRECTION('ref_axis',(-1.97372982155583E-16,0.,-1.));
#1418=DIRECTION('',(0.,1.,0.));
#1419=DIRECTION('center_axis',(0.,1.,0.));
#1420=DIRECTION('ref_axis',(-1.,0.,0.));
#1421=DIRECTION('',(0.,-1.,0.));
#1422=DIRECTION('center_axis',(0.,-1.,0.));
#1423=DIRECTION('ref_axis',(1.,0.,0.));
#1424=DIRECTION('',(0.,-1.,0.));
#1425=DIRECTION('center_axis',(0.,1.,0.));
#1426=DIRECTION('ref_axis',(1.,0.,0.));
#1427=DIRECTION('',(0.,-1.,0.));
#1428=DIRECTION('center_axis',(0.,1.,0.));
#1429=DIRECTION('ref_axis',(1.,0.,0.));
#1430=DIRECTION('',(0.,-1.,0.));
#1431=DIRECTION('center_axis',(0.,-1.,0.));
#1432=DIRECTION('ref_axis',(0.707106781186551,0.,0.707106781186544));
#1433=DIRECTION('',(0.,-1.,0.));
#1434=DIRECTION('center_axis',(0.,1.,0.));
#1435=DIRECTION('ref_axis',(-0.707106781186548,0.,0.707106781186548));
#1436=DIRECTION('',(0.,-1.,0.));
#1437=DIRECTION('',(0.,1.,0.));
#1438=DIRECTION('center_axis',(-1.,0.,2.96059473233375E-16));
#1439=DIRECTION('ref_axis',(2.96059473233375E-16,0.,1.));
#1440=DIRECTION('center_axis',(1.61486985400023E-16,0.,1.));
#1441=DIRECTION('ref_axis',(1.,0.,-1.61486985400023E-16));
#1442=CARTESIAN_POINT('',(0.,0.,0.));
#1443=CARTESIAN_POINT('Origin',(32.,52.,3.5119386982179));
#1444=CARTESIAN_POINT('',(32.,52.5746957711327,5.4275912686602));
#1445=CARTESIAN_POINT('',(30.,52.,3.5119386982179));
#1446=CARTESIAN_POINT('Origin',(32.,52.,3.5119386982179));
#1447=CARTESIAN_POINT('',(32.,54.,3.5119386982179));
#1448=CARTESIAN_POINT('Origin',(32.,52.,3.5119386982179));
#1449=CARTESIAN_POINT('Origin',(32.,52.,3.5119386982179));
#1450=CARTESIAN_POINT('Origin',(15.,52.,3.5119386982179));
#1451=CARTESIAN_POINT('',(38.,52.5746957711327,5.4275912686602));
#1452=CARTESIAN_POINT('',(38.,54.,3.5119386982179));
#1453=CARTESIAN_POINT('Origin',(38.,52.,3.5119386982179));
#1454=CARTESIAN_POINT('',(15.,54.,3.5119386982179));
#1455=CARTESIAN_POINT('',(15.,52.5746957711327,5.4275912686602));
#1456=CARTESIAN_POINT('Origin',(38.,52.,3.5119386982179));
#1457=CARTESIAN_POINT('',(40.,52.,3.5119386982179));
#1458=CARTESIAN_POINT('Origin',(38.,52.,3.5119386982179));
#1459=CARTESIAN_POINT('Origin',(38.,52.,3.5119386982179));
#1460=CARTESIAN_POINT('Origin',(32.,52.,-0.999999999999995));
#1461=CARTESIAN_POINT('',(32.,54.,-2.));
#1462=CARTESIAN_POINT('',(30.,52.,0.));
#1463=CARTESIAN_POINT('Origin',(32.,52.,-2.));
#1464=CARTESIAN_POINT('',(30.,52.,-0.999999999999995));
#1465=CARTESIAN_POINT('',(32.,54.,-0.999999999999995));
#1466=CARTESIAN_POINT('Origin',(32.,32.2785152380416,9.42838412680541));
#1467=CARTESIAN_POINT('',(30.,4.85060845773462,17.6567561608975));
#1468=CARTESIAN_POINT('',(32.,5.42530422886731,19.5724087313398));
#1469=CARTESIAN_POINT('Origin',(32.,4.85060845773462,17.6567561608975));
#1470=CARTESIAN_POINT('',(32.,32.8532110091743,11.3440366972477));
#1471=CARTESIAN_POINT('',(30.,32.2785152380416,9.42838412680541));
#1472=CARTESIAN_POINT('Origin',(32.,6.00000000000001,21.4880613017821));
#1473=CARTESIAN_POINT('',(30.,4.,18.0239596866444));
#1474=CARTESIAN_POINT('',(32.,4.,21.4880613017821));
#1475=CARTESIAN_POINT('Ctrl Pts',(32.,4.,21.4880613017821));
#1476=CARTESIAN_POINT('Ctrl Pts',(31.7229017779191,4.,21.2109630797012));
#1477=CARTESIAN_POINT('Ctrl Pts',(31.4173180252879,4.,20.9065106298192));
#1478=CARTESIAN_POINT('Ctrl Pts',(30.8578775365535,4.,20.2583483794804));
#1479=CARTESIAN_POINT('Ctrl Pts',(30.6064531055631,4.,19.9125431881434));
#1480=CARTESIAN_POINT('Ctrl Pts',(30.2999378216496,4.,19.3430359871965));
#1481=CARTESIAN_POINT('Ctrl Pts',(30.1891622617136,4.,19.0861783676309));
#1482=CARTESIAN_POINT('Ctrl Pts',(30.0389086562628,4.,18.5541592499225));
#1483=CARTESIAN_POINT('Ctrl Pts',(30.,4.,18.2788371085199));
#1484=CARTESIAN_POINT('Ctrl Pts',(30.,4.,18.0239596866444));
#1485=CARTESIAN_POINT('Origin',(32.,6.00000000000001,21.4880613017821));
#1486=CARTESIAN_POINT('Origin',(30.,6.00000000000001,21.4880613017821));
#1487=CARTESIAN_POINT('Origin',(4.44089209850063E-15,54.,6.00000000000001));
#1488=CARTESIAN_POINT('',(-32.,54.,-2.));
#1489=CARTESIAN_POINT('',(-11.,54.,-2.));
#1490=CARTESIAN_POINT('',(38.,54.,-6.));
#1491=CARTESIAN_POINT('',(38.,54.,13.));
#1492=CARTESIAN_POINT('',(-38.,54.,-6.));
#1493=CARTESIAN_POINT('',(16.,54.,-6.));
#1494=CARTESIAN_POINT('',(-38.,54.,3.5119386982179));
#1495=CARTESIAN_POINT('',(-38.,54.,-0.999999999999995));
#1496=CARTESIAN_POINT('',(-32.,54.,3.5119386982179));
#1497=CARTESIAN_POINT('',(-15.,54.,3.5119386982179));
#1498=CARTESIAN_POINT('',(-32.,54.,13.));
#1499=CARTESIAN_POINT('Origin',(38.,52.,13.));
#1500=CARTESIAN_POINT('',(40.,52.,-8.));
#1501=CARTESIAN_POINT('',(40.,52.,13.));
#1502=CARTESIAN_POINT('Origin',(38.,52.,-6.));
#1503=CARTESIAN_POINT('Origin',(38.,28.4253042288673,10.5843474295577));
#1504=CARTESIAN_POINT('',(38.,5.42530422886731,19.5724087313398));
#1505=CARTESIAN_POINT('',(38.,29.,12.5));
#1506=CARTESIAN_POINT('',(40.,6.,17.3119386982179));
#1507=CARTESIAN_POINT('Origin',(38.,6.,17.3119386982179));
#1508=CARTESIAN_POINT('',(40.,28.4253042288673,10.5843474295577));
#1509=CARTESIAN_POINT('Origin',(30.,54.,5.00000000000001));
#1510=CARTESIAN_POINT('',(15.,5.42530422886731,19.5724087313398));
#1511=CARTESIAN_POINT('Origin',(15.,6.00000000000001,21.4880613017821));
#1512=CARTESIAN_POINT('',(38.,4.,21.4880613017821));
#1513=CARTESIAN_POINT('',(15.,4.,21.4880613017821));
#1514=CARTESIAN_POINT('Origin',(38.,6.00000000000001,21.4880613017821));
#1515=CARTESIAN_POINT('Origin',(-11.,6.,2.));
#1516=CARTESIAN_POINT('',(-28.,4.,2.));
#1517=CARTESIAN_POINT('',(30.,4.,2.));
#1518=CARTESIAN_POINT('',(-11.,4.,2.));
#1519=CARTESIAN_POINT('',(30.,6.,0.));
#1520=CARTESIAN_POINT('Origin',(30.,6.,2.));
#1521=CARTESIAN_POINT('',(-30.,6.,0.));
#1522=CARTESIAN_POINT('',(-11.,6.,0.));
#1523=CARTESIAN_POINT('Origin',(-28.,6.,2.));
#1524=CARTESIAN_POINT('Origin',(-11.,52.,-2.));
#1525=CARTESIAN_POINT('',(-30.,52.,0.));
#1526=CARTESIAN_POINT('',(-11.,52.,0.));
#1527=CARTESIAN_POINT('Origin',(-32.,52.,-2.));
#1528=CARTESIAN_POINT('Ctrl Pts',(-28.,4.,17.3119386982179));
#1529=CARTESIAN_POINT('Ctrl Pts',(-28.,4.,18.2490584190642));
#1530=CARTESIAN_POINT('Ctrl Pts',(-28.7308141219755,4.,20.4396510650868));
#1531=CARTESIAN_POINT('Ctrl Pts',(-30.8032027986325,4.,21.4880613017821));
#1532=CARTESIAN_POINT('Ctrl Pts',(-32.,4.,21.4880613017821));
#1533=CARTESIAN_POINT('Ctrl Pts',(-28.5983986006838,4.,17.3119386982179));
#1534=CARTESIAN_POINT('Ctrl Pts',(-28.5732872010199,4.00102780932307,18.1198670790021));
#1535=CARTESIAN_POINT('Ctrl Pts',(-29.1501438216413,4.00091432277293,20.0513777847863));
#1536=CARTESIAN_POINT('Ctrl Pts',(-30.9557426785047,4.,21.0006938608994));
#1537=CARTESIAN_POINT('Ctrl Pts',(-32.,4.,21.0006938608994));
#1538=CARTESIAN_POINT('Ctrl Pts',(-29.6346166682193,4.50185776332017,17.3119386982179));
#1539=CARTESIAN_POINT('Ctrl Pts',(-29.5695447650333,4.45790286476631,17.8979737033524));
#1540=CARTESIAN_POINT('Ctrl Pts',(-29.8822401453338,4.36458367700095,19.3773643335293));
#1541=CARTESIAN_POINT('Ctrl Pts',(-31.2204966110003,4.32605432563113,20.1517409566807));
#1542=CARTESIAN_POINT('Ctrl Pts',(-32.,4.32605432563113,20.1517409566807));
#1543=CARTESIAN_POINT('Ctrl Pts',(-30.,5.55120104948717,17.3119386982179));
#1544=CARTESIAN_POINT('Ctrl Pts',(-29.9708064341877,5.44036663834201,17.8188568121997));
#1545=CARTESIAN_POINT('Ctrl Pts',(-30.2811689788554,5.18960745715504,19.0541419886145));
#1546=CARTESIAN_POINT('Ctrl Pts',(-31.368992544394,5.07519421978851,19.6774417340635));
#1547=CARTESIAN_POINT('Ctrl Pts',(-32.,5.07519421978851,19.6774417340635));
#1548=CARTESIAN_POINT('Ctrl Pts',(-30.,6.,17.3119386982179));
#1549=CARTESIAN_POINT('Ctrl Pts',(-30.,5.87103857052574,17.8191869874833));
#1550=CARTESIAN_POINT('Ctrl Pts',(-30.3654070609878,5.56958086694464,19.0049206215689));
#1551=CARTESIAN_POINT('Ctrl Pts',(-31.4016013993162,5.42530422886731,19.5724087313398));
#1552=CARTESIAN_POINT('Ctrl Pts',(-32.,5.42530422886731,19.5724087313398));
#1553=CARTESIAN_POINT('',(-32.,5.42530422886731,19.5724087313398));
#1554=CARTESIAN_POINT('',(-30.,6.,17.3119386982179));
#1555=CARTESIAN_POINT('Origin',(-32.,6.,17.3119386982179));
#1556=CARTESIAN_POINT('',(-32.,4.,21.4880613017821));
#1557=CARTESIAN_POINT('Origin',(-32.,6.00000000000001,21.4880613017821));
#1558=CARTESIAN_POINT('',(-28.,4.,17.3119386982179));
#1559=CARTESIAN_POINT('Origin',(-32.,4.,17.3119386982179));
#1560=CARTESIAN_POINT('Origin',(-28.,6.,17.3119386982179));
#1561=CARTESIAN_POINT('Origin',(-32.,52.,3.5119386982179));
#1562=CARTESIAN_POINT('',(-30.,52.,3.5119386982179));
#1563=CARTESIAN_POINT('',(-32.,52.5746957711327,5.4275912686602));
#1564=CARTESIAN_POINT('Origin',(-32.,52.,3.5119386982179));
#1565=CARTESIAN_POINT('Origin',(-32.,52.,3.5119386982179));
#1566=CARTESIAN_POINT('Origin',(-32.,52.,3.5119386982179));
#1567=CARTESIAN_POINT('Origin',(-32.,52.,13.));
#1568=CARTESIAN_POINT('',(-30.,52.,13.));
#1569=CARTESIAN_POINT('Ctrl Pts',(-38.,4.,21.4880613017821));
#1570=CARTESIAN_POINT('Ctrl Pts',(-39.1967972013675,4.,21.4880613017821));
#1571=CARTESIAN_POINT('Ctrl Pts',(-41.2690653263151,4.,20.4395461696928));
#1572=CARTESIAN_POINT('Ctrl Pts',(-42.,4.,18.2490584190642));
#1573=CARTESIAN_POINT('Ctrl Pts',(-42.,4.,17.3119386982179));
#1574=CARTESIAN_POINT('Ctrl Pts',(-38.,4.,21.0006938608994));
#1575=CARTESIAN_POINT('Ctrl Pts',(-39.0442573214953,4.,21.0006938608994));
#1576=CARTESIAN_POINT('Ctrl Pts',(-40.8497618522689,4.00097984733642,20.0512559479927));
#1577=CARTESIAN_POINT('Ctrl Pts',(-41.42671279898,4.00102780932307,18.1198670790021));
#1578=CARTESIAN_POINT('Ctrl Pts',(-41.4016013993162,4.,17.3119386982179));
#1579=CARTESIAN_POINT('Ctrl Pts',(-38.,4.32607676867271,20.1517552541562));
#1580=CARTESIAN_POINT('Ctrl Pts',(-38.7795033889996,4.32607676867271,20.1517552541562));
#1581=CARTESIAN_POINT('Ctrl Pts',(-40.1176393065754,4.3646028684926,19.3773200809237));
#1582=CARTESIAN_POINT('Ctrl Pts',(-40.4304926431595,4.45794777259758,17.8979737033524));
#1583=CARTESIAN_POINT('Ctrl Pts',(-40.3654207399735,4.50190267115143,17.3119386982179));
#1584=CARTESIAN_POINT('Ctrl Pts',(-38.,5.07519421978851,19.6774417340634));
#1585=CARTESIAN_POINT('Ctrl Pts',(-38.631007455606,5.07519421978851,19.6774417340634));
#1586=CARTESIAN_POINT('Ctrl Pts',(-39.7187578633437,5.18960224868602,19.0540669011015));
#1587=CARTESIAN_POINT('Ctrl Pts',(-40.0291935658122,5.44036663834202,17.8188568121997));
#1588=CARTESIAN_POINT('Ctrl Pts',(-40.,5.55120104948718,17.3119386982179));
#1589=CARTESIAN_POINT('Ctrl Pts',(-38.,5.42530422886731,19.5724087313398));
#1590=CARTESIAN_POINT('Ctrl Pts',(-38.5983986006838,5.42530422886731,19.5724087313398));
#1591=CARTESIAN_POINT('Ctrl Pts',(-39.6345326631575,5.56959530209062,19.0048638433281));
#1592=CARTESIAN_POINT('Ctrl Pts',(-40.,5.87103857052575,17.8191869874833));
#1593=CARTESIAN_POINT('Ctrl Pts',(-40.,6.00000000000001,17.3119386982179));
#1594=CARTESIAN_POINT('',(-42.,4.,17.3119386982179));
#1595=CARTESIAN_POINT('',(-38.,4.,21.4880613017821));
#1596=CARTESIAN_POINT('Origin',(-38.,4.,17.3119386982179));
#1597=CARTESIAN_POINT('',(-38.,5.42530422886731,19.5724087313398));
#1598=CARTESIAN_POINT('Origin',(-38.,6.00000000000001,21.4880613017821));
#1599=CARTESIAN_POINT('',(-40.,6.,17.3119386982179));
#1600=CARTESIAN_POINT('Origin',(-38.,6.00000000000001,17.3119386982179));
#1601=CARTESIAN_POINT('Origin',(-42.,6.,17.3119386982179));
#1602=CARTESIAN_POINT('Origin',(-15.,6.00000000000001,21.4880613017821));
#1603=CARTESIAN_POINT('',(-15.,4.,21.4880613017821));
#1604=CARTESIAN_POINT('',(-15.,5.42530422886731,19.5724087313398));
#1605=CARTESIAN_POINT('Origin',(-38.,52.,3.5119386982179));
#1606=CARTESIAN_POINT('',(-40.,52.,3.5119386982179));
#1607=CARTESIAN_POINT('Origin',(-38.,52.,3.5119386982179));
#1608=CARTESIAN_POINT('',(-38.,52.5746957711327,5.4275912686602));
#1609=CARTESIAN_POINT('Origin',(-38.,52.,3.5119386982179));
#1610=CARTESIAN_POINT('Origin',(-38.,52.,3.5119386982179));
#1611=CARTESIAN_POINT('Origin',(-38.,32.2785152380416,9.42838412680541));
#1612=CARTESIAN_POINT('',(-40.,32.2785152380416,9.42838412680541));
#1613=CARTESIAN_POINT('',(-38.,32.8532110091743,11.3440366972477));
#1614=CARTESIAN_POINT('Origin',(-15.,52.,3.5119386982179));
#1615=CARTESIAN_POINT('',(-15.,52.5746957711327,5.4275912686602));
#1616=CARTESIAN_POINT('Origin',(-38.,52.,-0.999999999999995));
#1617=CARTESIAN_POINT('',(-40.,52.,-8.));
#1618=CARTESIAN_POINT('',(-40.,52.,-0.999999999999995));
#1619=CARTESIAN_POINT('Origin',(-38.,52.,-6.));
#1620=CARTESIAN_POINT('Origin',(16.,52.,-6.));
#1621=CARTESIAN_POINT('',(16.,52.,-8.));
#1622=CARTESIAN_POINT('Ctrl Pts',(42.,4.,17.3119386982179));
#1623=CARTESIAN_POINT('Ctrl Pts',(42.,4.,18.2490584190642));
#1624=CARTESIAN_POINT('Ctrl Pts',(41.2690653263151,4.,20.4395461696928));
#1625=CARTESIAN_POINT('Ctrl Pts',(39.1967972013675,4.,21.4880613017821));
#1626=CARTESIAN_POINT('Ctrl Pts',(38.,4.,21.4880613017821));
#1627=CARTESIAN_POINT('Ctrl Pts',(41.4016013993162,4.,17.3119386982179));
#1628=CARTESIAN_POINT('Ctrl Pts',(41.4267127989801,4.00102780932307,18.1198670790021));
#1629=CARTESIAN_POINT('Ctrl Pts',(40.8497618522689,4.00097984733642,20.0512559479927));
#1630=CARTESIAN_POINT('Ctrl Pts',(39.0442573214954,4.,21.0006938608994));
#1631=CARTESIAN_POINT('Ctrl Pts',(38.,4.,21.0006938608994));
#1632=CARTESIAN_POINT('Ctrl Pts',(40.3654207399735,4.50190267115143,17.3119386982179));
#1633=CARTESIAN_POINT('Ctrl Pts',(40.4304926431595,4.45794777259757,17.8979737033524));
#1634=CARTESIAN_POINT('Ctrl Pts',(40.1176393065754,4.3646028684926,19.3773200809237));
#1635=CARTESIAN_POINT('Ctrl Pts',(38.7795033889997,4.3260767686727,20.1517552541562));
#1636=CARTESIAN_POINT('Ctrl Pts',(38.,4.32607676867271,20.1517552541562));
#1637=CARTESIAN_POINT('Ctrl Pts',(40.,5.55120104948717,17.3119386982179));
#1638=CARTESIAN_POINT('Ctrl Pts',(40.0291935658123,5.44036663834201,17.8188568121997));
#1639=CARTESIAN_POINT('Ctrl Pts',(39.7187578633437,5.18960224868601,19.0540669011015));
#1640=CARTESIAN_POINT('Ctrl Pts',(38.6310074556061,5.07519421978851,19.6774417340635));
#1641=CARTESIAN_POINT('Ctrl Pts',(38.,5.07519421978851,19.6774417340635));
#1642=CARTESIAN_POINT('Ctrl Pts',(40.,6.,17.3119386982179));
#1643=CARTESIAN_POINT('Ctrl Pts',(40.,5.87103857052574,17.8191869874833));
#1644=CARTESIAN_POINT('Ctrl Pts',(39.6345326631575,5.56959530209061,19.0048638433281));
#1645=CARTESIAN_POINT('Ctrl Pts',(38.5983986006838,5.42530422886731,19.5724087313398));
#1646=CARTESIAN_POINT('Ctrl Pts',(38.,5.42530422886731,19.5724087313398));
#1647=CARTESIAN_POINT('',(42.,4.,17.3119386982179));
#1648=CARTESIAN_POINT('Origin',(38.,4.,17.3119386982179));
#1649=CARTESIAN_POINT('Origin',(42.,6.,17.3119386982179));
#1650=CARTESIAN_POINT('Origin',(42.,6.,10.));
#1651=CARTESIAN_POINT('',(42.,4.,-7.99999999999999));
#1652=CARTESIAN_POINT('',(40.,6.,-8.));
#1653=CARTESIAN_POINT('Origin',(42.,6.,-8.));
#1654=CARTESIAN_POINT('',(40.,6.,10.));
#1655=CARTESIAN_POINT('',(42.,4.,10.));
#1656=CARTESIAN_POINT('Origin',(-42.,6.,-4.));
#1657=CARTESIAN_POINT('',(-40.,6.,-8.));
#1658=CARTESIAN_POINT('',(-42.,4.,-7.99999999999999));
#1659=CARTESIAN_POINT('Origin',(-42.,6.,-8.));
#1660=CARTESIAN_POINT('',(-42.,4.,-4.));
#1661=CARTESIAN_POINT('',(-40.,6.,-4.));
#1662=CARTESIAN_POINT('Origin',(-32.,28.4253042288673,10.5843474295577));
#1663=CARTESIAN_POINT('',(-30.,28.4253042288673,10.5843474295577));
#1664=CARTESIAN_POINT('',(-32.,29.,12.5));
#1665=CARTESIAN_POINT('Origin',(-28.,6.,10.));
#1666=CARTESIAN_POINT('',(-30.,6.,10.));
#1667=CARTESIAN_POINT('',(-28.,4.,10.));
#1668=CARTESIAN_POINT('Origin',(-30.,4.,20.));
#1669=CARTESIAN_POINT('',(-30.,4.,0.));
#1670=CARTESIAN_POINT('Origin',(-22.,4.,0.));
#1671=CARTESIAN_POINT('',(30.,4.,0.));
#1672=CARTESIAN_POINT('',(21.,38.5,0.));
#1673=CARTESIAN_POINT('',(21.,16.5,0.));
#1674=CARTESIAN_POINT('',(21.,10.25,0.));
#1675=CARTESIAN_POINT('',(-21.,16.5,0.));
#1676=CARTESIAN_POINT('',(-21.5,16.5,0.));
#1677=CARTESIAN_POINT('',(-21.,38.5,0.));
#1678=CARTESIAN_POINT('',(-21.,21.25,0.));
#1679=CARTESIAN_POINT('',(-0.500000000000006,38.5,0.));
#1680=CARTESIAN_POINT('',(-23.,22.5,0.));
#1681=CARTESIAN_POINT('Origin',(-24.5,22.5,0.));
#1682=CARTESIAN_POINT('',(-23.,32.5,0.));
#1683=CARTESIAN_POINT('Origin',(-24.5,32.5,0.));
#1684=CARTESIAN_POINT('',(26.,32.5,0.));
#1685=CARTESIAN_POINT('Origin',(24.5,32.5,0.));
#1686=CARTESIAN_POINT('',(26.,22.5,0.));
#1687=CARTESIAN_POINT('Origin',(24.5,22.5,0.));
#1688=CARTESIAN_POINT('Origin',(30.,4.,-8.));
#1689=CARTESIAN_POINT('',(30.,4.,20.));
#1690=CARTESIAN_POINT('Origin',(-30.,54.,5.00000000000001));
#1691=CARTESIAN_POINT('Origin',(-53.,2.,-6.));
#1692=CARTESIAN_POINT('',(-55.,4.,-6.));
#1693=CARTESIAN_POINT('',(-53.,4.,-7.99999999999999));
#1694=CARTESIAN_POINT('Origin',(-53.,4.,-6.));
#1695=CARTESIAN_POINT('',(-53.,-4.,-7.99999999999999));
#1696=CARTESIAN_POINT('',(-53.,2.,-8.));
#1697=CARTESIAN_POINT('',(-55.,-4.,-6.));
#1698=CARTESIAN_POINT('Origin',(-53.,-4.,-6.));
#1699=CARTESIAN_POINT('',(-55.,2.,-6.));
#1700=CARTESIAN_POINT('Origin',(0.,-4.,0.));
#1701=CARTESIAN_POINT('',(53.,-4.,-7.99999999999999));
#1702=CARTESIAN_POINT('',(27.5,-4.,-7.99999999999999));
#1703=CARTESIAN_POINT('',(55.,-4.,-6.));
#1704=CARTESIAN_POINT('Origin',(53.,-4.,-6.));
#1705=CARTESIAN_POINT('',(55.,-4.,43.));
#1706=CARTESIAN_POINT('',(55.,-4.,45.));
#1707=CARTESIAN_POINT('',(53.,-4.,45.));
#1708=CARTESIAN_POINT('Origin',(53.,-4.,43.));
#1709=CARTESIAN_POINT('',(-53.,-4.,45.));
#1710=CARTESIAN_POINT('',(-55.,-4.,45.));
#1711=CARTESIAN_POINT('',(-55.,-4.,43.));
#1712=CARTESIAN_POINT('Origin',(-53.,-4.,43.));
#1713=CARTESIAN_POINT('',(-55.,-4.,-45.));
#1714=CARTESIAN_POINT('',(47.5,-4.,4.99999999999999));
#1715=CARTESIAN_POINT('Origin',(50.,-4.,4.99999999999999));
#1716=CARTESIAN_POINT('',(-52.5,-4.,5.));
#1717=CARTESIAN_POINT('Origin',(-50.,-4.,5.));
#1718=CARTESIAN_POINT('',(-52.5,-4.,35.));
#1719=CARTESIAN_POINT('Origin',(-50.,-4.,35.));
#1720=CARTESIAN_POINT('',(52.5,-4.,35.));
#1721=CARTESIAN_POINT('Origin',(50.,-4.,35.));
#1722=CARTESIAN_POINT('Origin',(32.,4.,-8.));
#1723=CARTESIAN_POINT('',(40.,4.,-8.));
#1724=CARTESIAN_POINT('',(53.,4.,-7.99999999999999));
#1725=CARTESIAN_POINT('',(27.5,4.,-7.99999999999999));
#1726=CARTESIAN_POINT('',(53.,2.,-8.));
#1727=CARTESIAN_POINT('',(27.5,4.,-7.99999999999999));
#1728=CARTESIAN_POINT('',(-40.,4.,-8.));
#1729=CARTESIAN_POINT('',(26.,32.5,-8.));
#1730=CARTESIAN_POINT('Origin',(24.5,32.5,-8.));
#1731=CARTESIAN_POINT('',(21.,38.5,-8.));
#1732=CARTESIAN_POINT('',(-21.,38.5,-8.));
#1733=CARTESIAN_POINT('',(5.49999999999999,38.5,-8.));
#1734=CARTESIAN_POINT('',(-21.,16.5,-8.));
#1735=CARTESIAN_POINT('',(-21.,10.25,-8.));
#1736=CARTESIAN_POINT('',(21.,16.5,-8.));
#1737=CARTESIAN_POINT('',(26.5,16.5,-8.));
#1738=CARTESIAN_POINT('',(21.,21.25,-8.));
#1739=CARTESIAN_POINT('',(-23.,22.5,-8.));
#1740=CARTESIAN_POINT('Origin',(-24.5,22.5,-8.));
#1741=CARTESIAN_POINT('',(-23.,32.5,-8.));
#1742=CARTESIAN_POINT('Origin',(-24.5,32.5,-8.));
#1743=CARTESIAN_POINT('',(26.,22.5,-8.));
#1744=CARTESIAN_POINT('Origin',(24.5,22.5,-8.));
#1745=CARTESIAN_POINT('Origin',(53.,2.,-6.));
#1746=CARTESIAN_POINT('',(55.,4.,-6.));
#1747=CARTESIAN_POINT('Origin',(53.,4.,-6.));
#1748=CARTESIAN_POINT('',(55.,2.,-6.));
#1749=CARTESIAN_POINT('Origin',(0.,4.,0.));
#1750=CARTESIAN_POINT('',(-55.,4.,43.));
#1751=CARTESIAN_POINT('',(-55.,4.,-45.));
#1752=CARTESIAN_POINT('',(-53.,4.,45.));
#1753=CARTESIAN_POINT('Origin',(-53.,4.,43.));
#1754=CARTESIAN_POINT('',(53.,4.,45.));
#1755=CARTESIAN_POINT('',(-55.,4.,45.));
#1756=CARTESIAN_POINT('',(55.,4.,43.));
#1757=CARTESIAN_POINT('Origin',(53.,4.,43.));
#1758=CARTESIAN_POINT('',(55.,4.,45.));
#1759=CARTESIAN_POINT('',(47.5,4.,4.99999999999999));
#1760=CARTESIAN_POINT('Origin',(50.,4.,4.99999999999999));
#1761=CARTESIAN_POINT('',(-52.5,4.,5.));
#1762=CARTESIAN_POINT('Origin',(-50.,4.,5.));
#1763=CARTESIAN_POINT('',(-52.5,4.,35.));
#1764=CARTESIAN_POINT('Origin',(-50.,4.,35.));
#1765=CARTESIAN_POINT('',(52.5,4.,35.));
#1766=CARTESIAN_POINT('Origin',(50.,4.,35.));
#1767=CARTESIAN_POINT('Origin',(40.,4.,20.));
#1768=CARTESIAN_POINT('Origin',(-40.,4.,-8.));
#1769=CARTESIAN_POINT('Origin',(24.5,32.5,-8.));
#1770=CARTESIAN_POINT('',(26.,32.5,-8.));
#1771=CARTESIAN_POINT('Origin',(21.,16.5,-3.24457426244027));
#1772=CARTESIAN_POINT('',(-21.,16.5,-3.24457426244024));
#1773=CARTESIAN_POINT('',(21.,16.5,-3.24457426244027));
#1774=CARTESIAN_POINT('Origin',(21.,38.5,-3.24457426244027));
#1775=CARTESIAN_POINT('',(21.,38.5,-3.24457426244027));
#1776=CARTESIAN_POINT('Origin',(-21.,38.5,-3.24457426244024));
#1777=CARTESIAN_POINT('',(-21.,38.5,-3.24457426244024));
#1778=CARTESIAN_POINT('Origin',(-21.,16.5,-3.24457426244024));
#1779=CARTESIAN_POINT('Origin',(-24.5,22.5,-8.));
#1780=CARTESIAN_POINT('',(-23.,22.5,-8.));
#1781=CARTESIAN_POINT('Origin',(-24.5,32.5,-8.));
#1782=CARTESIAN_POINT('',(-23.,32.5,-8.));
#1783=CARTESIAN_POINT('Origin',(24.5,22.5,-8.));
#1784=CARTESIAN_POINT('',(26.,22.5,-8.));
#1785=CARTESIAN_POINT('Origin',(55.,0.,45.));
#1786=CARTESIAN_POINT('',(55.,0.,43.));
#1787=CARTESIAN_POINT('Origin',(50.,4.,35.));
#1788=CARTESIAN_POINT('',(52.5,4.,35.));
#1789=CARTESIAN_POINT('Origin',(-50.,4.,35.));
#1790=CARTESIAN_POINT('',(-52.5,4.,35.));
#1791=CARTESIAN_POINT('Origin',(-50.,-149.505700219894,5.));
#1792=CARTESIAN_POINT('',(-52.5,-149.505700219894,5.));
#1793=CARTESIAN_POINT('Origin',(50.,-149.505700219894,4.99999999999999));
#1794=CARTESIAN_POINT('',(47.5,-149.505700219894,4.99999999999999));
#1795=CARTESIAN_POINT('Origin',(53.,0.,43.));
#1796=CARTESIAN_POINT('',(53.,0.,45.));
#1797=CARTESIAN_POINT('Origin',(-53.,0.,43.));
#1798=CARTESIAN_POINT('',(-55.,0.,43.));
#1799=CARTESIAN_POINT('',(-53.,0.,45.));
#1800=CARTESIAN_POINT('Origin',(-55.,0.,-45.));
#1801=CARTESIAN_POINT('Origin',(-55.,0.,45.));
#1802=CARTESIAN_POINT('',(0.,0.,0.));
#1803=CARTESIAN_POINT('',(0.,0.,0.));
#1804=CARTESIAN_POINT('',(-32.,0.,1.77635683940025E-14));
#1805=CARTESIAN_POINT('',(0.,4.,0.));
#1806=CARTESIAN_POINT('',(0.,4.,0.));
#1807=UNCERTAINTY_MEASURE_WITH_UNIT(LENGTH_MEASURE(0.01),#1811,
'DISTANCE_ACCURACY_VALUE',
'Maximum model space distance between geometric entities at asserted c
onnectivities');
#1808=UNCERTAINTY_MEASURE_WITH_UNIT(LENGTH_MEASURE(0.01),#1811,
'DISTANCE_ACCURACY_VALUE',
'Maximum model space distance between geometric entities at asserted c
onnectivities');
#1809=(
GEOMETRIC_REPRESENTATION_CONTEXT(3)
GLOBAL_UNCERTAINTY_ASSIGNED_CONTEXT((#1807))
GLOBAL_UNIT_ASSIGNED_CONTEXT((#1811,#1813,#1814))
REPRESENTATION_CONTEXT('','3D')
);
#1810=(
GEOMETRIC_REPRESENTATION_CONTEXT(3)
GLOBAL_UNCERTAINTY_ASSIGNED_CONTEXT((#1808))
GLOBAL_UNIT_ASSIGNED_CONTEXT((#1811,#1813,#1814))
REPRESENTATION_CONTEXT('','3D')
);
#1811=(
LENGTH_UNIT()
NAMED_UNIT(*)
SI_UNIT(.MILLI.,.METRE.)
);
#1812=(
LENGTH_UNIT()
NAMED_UNIT(*)
SI_UNIT(.CENTI.,.METRE.)
);
#1813=(
NAMED_UNIT(*)
PLANE_ANGLE_UNIT()
SI_UNIT($,.RADIAN.)
);
#1814=(
NAMED_UNIT(*)
SI_UNIT($,.STERADIAN.)
SOLID_ANGLE_UNIT()
);
#1815=SHAPE_DEFINITION_REPRESENTATION(#1816,#1817);
#1816=PRODUCT_DEFINITION_SHAPE('',$,#1819);
#1817=SHAPE_REPRESENTATION('',(#1025),#1809);
#1818=PRODUCT_DEFINITION_CONTEXT('part definition',#1823,'design');
#1819=PRODUCT_DEFINITION('MG996R_PODSTAWA','MG996R_PODSTAWA',#1820,#1818);
#1820=PRODUCT_DEFINITION_FORMATION('',$,#1825);
#1821=PRODUCT_RELATED_PRODUCT_CATEGORY('MG996R_PODSTAWA',
'MG996R_PODSTAWA',(#1825));
#1822=APPLICATION_PROTOCOL_DEFINITION('international standard',
'automotive_design',2009,#1823);
#1823=APPLICATION_CONTEXT(
'Core Data for Automotive Mechanical Design Process');
#1824=PRODUCT_CONTEXT('part definition',#1823,'mechanical');
#1825=PRODUCT('MG996R_PODSTAWA','MG996R_PODSTAWA',$,(#1824));
#1826=PRESENTATION_STYLE_ASSIGNMENT((#1829));
#1827=PRESENTATION_STYLE_ASSIGNMENT((#1830));
#1828=PRESENTATION_STYLE_ASSIGNMENT((#1831));
#1829=SURFACE_STYLE_USAGE(.BOTH.,#1836);
#1830=SURFACE_STYLE_USAGE(.BOTH.,#1837);
#1831=SURFACE_STYLE_USAGE(.BOTH.,#1838);
#1832=SURFACE_STYLE_RENDERING_WITH_PROPERTIES($,#1848,(#1834));
#1833=SURFACE_STYLE_RENDERING_WITH_PROPERTIES($,#1849,(#1835));
#1834=SURFACE_STYLE_TRANSPARENT(0.);
#1835=SURFACE_STYLE_TRANSPARENT(0.);
#1836=SURFACE_SIDE_STYLE('',(#1839,#1832));
#1837=SURFACE_SIDE_STYLE('',(#1840,#1833));
#1838=SURFACE_SIDE_STYLE('',(#1841));
#1839=SURFACE_STYLE_FILL_AREA(#1842);
#1840=SURFACE_STYLE_FILL_AREA(#1843);
#1841=SURFACE_STYLE_FILL_AREA(#1844);
#1842=FILL_AREA_STYLE('',(#1845));
#1843=FILL_AREA_STYLE('',(#1846));
#1844=FILL_AREA_STYLE('',(#1847));
#1845=FILL_AREA_STYLE_COLOUR('',#1848);
#1846=FILL_AREA_STYLE_COLOUR('',#1849);
#1847=FILL_AREA_STYLE_COLOUR('',#1850);
#1848=COLOUR_RGB('',0.749019607843137,0.749019607843137,0.749019607843137);
#1849=COLOUR_RGB('',0.411764705882353,0.411764705882353,0.411764705882353);
#1850=COLOUR_RGB('',1.,1.,0.);
ENDSEC;
END-ISO-10303-21;
